<?xml version="1.0" encoding="utf-8"?>
<svg id="svg2" version="1.1" viewBox="0 0 1440 1200" xml:space="preserve" xmlns="http://www.w3.org/2000/svg" xmlns:cc="http://creativecommons.org/ns#" xmlns:dc="http://purl.org/dc/elements/1.1/" xmlns:rdf="http://www.w3.org/1999/02/22-rdf-syntax-ns#" xmlns:svg="http://www.w3.org/2000/svg"><metadata id="metadata8"><rdf:RDF><cc:Work rdf:about=""><dc:format>image/svg+xml</dc:format><dc:type rdf:resource="http://purl.org/dc/dcmitype/StillImage"/></cc:Work></rdf:RDF></metadata><defs id="defs6"><clipPath clipPathUnits="userSpaceOnUse" id="clipPath18"><path d="M 0,900 H 1080 V 0 H 0 Z" id="path16"/></clipPath></defs><g id="g10" transform="matrix(1.3333333,0,0,-1.3333333,0,1200)"><g id="g12"><g clip-path="url(#clipPath18)" id="g14"><g id="g20" transform="translate(357.6075,420.3999)"><path d="m 0,0 c -0.218,0 -0.327,0.103 -0.327,0.308 v 2.254 c 0,0.206 0.109,0.308 0.327,0.308 h 2.221 c 0.217,0 0.326,-0.102 0.326,-0.308 V 0.308 C 2.547,0.103 2.438,0 2.221,0 Z m -3.984,0 c -0.218,0 -0.327,0.103 -0.327,0.308 v 2.254 c 0,0.206 0.109,0.308 0.327,0.308 h 2.221 c 0.217,0 0.326,-0.102 0.326,-0.308 V 0.308 C -1.437,0.103 -1.546,0 -1.763,0 Z M 1.372,16.082 C 2.068,15.835 2.743,15.583 3.396,15.326 4.05,15.068 4.687,14.832 5.307,14.616 5.927,14.4 6.542,14.224 7.152,14.091 7.761,13.957 8.382,13.89 9.014,13.89 h 2.645 c 0.435,0 0.761,-0.072 0.979,-0.216 0.218,-0.144 0.327,-0.432 0.327,-0.864 0,-0.515 -0.104,-0.864 -0.31,-1.05 -0.208,-0.185 -0.539,-0.277 -0.996,-0.277 H 9.34 C 9.449,11.318 9.579,11.046 9.732,10.665 9.884,10.284 9.96,9.867 9.96,9.414 9.96,8.921 9.857,8.432 9.651,7.948 9.443,7.465 9.1,7.028 8.621,6.636 8.143,6.246 7.511,5.932 6.728,5.695 5.944,5.459 4.985,5.34 3.854,5.34 h -7.642 c -2.547,0 -4.486,0.602 -5.813,1.806 -1.328,1.204 -1.992,2.855 -1.992,4.954 0,1.214 0.212,2.382 0.637,3.503 0.424,1.122 0.919,2.063 1.485,2.825 0.087,0.144 0.24,0.154 0.458,0.031 l 1.796,-0.926 c 0.174,-0.103 0.206,-0.237 0.098,-0.402 -0.392,-0.576 -0.768,-1.286 -1.127,-2.13 -0.359,-0.844 -0.539,-1.728 -0.539,-2.654 0,-0.844 0.147,-1.559 0.441,-2.145 0.294,-0.587 0.691,-1.055 1.192,-1.405 0.501,-0.35 1.072,-0.602 1.715,-0.756 0.642,-0.155 1.322,-0.232 2.041,-0.232 h 7.217 c 1.306,0 2.215,0.186 2.727,0.556 0.511,0.371 0.767,0.813 0.767,1.327 0,0.453 -0.147,0.844 -0.441,1.173 -0.294,0.33 -0.729,0.633 -1.306,0.911 -0.577,0.278 -1.296,0.56 -2.155,0.849 -0.861,0.288 -1.845,0.627 -2.956,1.018 -0.196,0.062 -0.261,0.186 -0.196,0.371 l 0.719,1.852 c 0.065,0.205 0.196,0.278 0.392,0.216" id="path22" style="fill:#1b1b68;fill-opacity:1;fill-rule:nonzero;stroke:none"/></g><g id="g24" transform="translate(373.3807,447.5632)"><path d="m 0,0 c -0.217,0 -0.326,0.103 -0.326,0.309 v 2.253 c 0,0.205 0.109,0.309 0.326,0.309 h 2.221 c 0.217,0 0.327,-0.104 0.327,-0.309 V 0.309 C 2.548,0.103 2.438,0 2.221,0 Z m -3.886,-15.681 c -0.435,0 -0.762,0.072 -0.98,0.216 -0.217,0.144 -0.327,0.432 -0.327,0.865 0,0.514 0.104,0.864 0.311,1.049 0.207,0.185 0.539,0.278 0.996,0.278 h 2.058 c 0.543,0 0.941,0.118 1.191,0.355 0.251,0.236 0.376,0.664 0.376,1.281 v 8.272 c 0,0.206 0.108,0.309 0.326,0.309 h 2.09 c 0.218,0 0.327,-0.103 0.327,-0.309 v -8.426 c 0,-1.338 -0.294,-2.321 -0.882,-2.948 -0.587,-0.628 -1.567,-0.942 -2.939,-0.942 z" id="path26" style="fill:#1b1b68;fill-opacity:1;fill-rule:nonzero;stroke:none"/></g><g id="g28" transform="translate(385.5947,442.6552)"><path d="m 0,0 c -1.089,0 -1.954,-0.412 -2.596,-1.235 -0.643,-0.823 -0.964,-1.914 -0.964,-3.272 0,-1.461 0.311,-2.469 0.931,-3.025 0.621,-0.555 1.54,-0.833 2.76,-0.833 h 3.298 v 4.044 c 0,1.358 -0.267,2.417 -0.8,3.179 C 2.095,-0.381 1.219,0 0,0 m -3.527,-16.915 c -0.218,0 -0.327,0.103 -0.327,0.308 v 1.791 c 0,0.206 0.109,0.308 0.327,0.308 h 3.919 c 0.435,0 0.838,0.047 1.208,0.139 0.37,0.093 0.691,0.247 0.964,0.463 0.272,0.216 0.484,0.515 0.636,0.895 0.152,0.381 0.229,0.86 0.229,1.436 v 0.802 h -3.494 c -0.959,0 -1.824,0.108 -2.596,0.324 -0.774,0.216 -1.432,0.566 -1.976,1.05 -0.545,0.483 -0.958,1.126 -1.241,1.929 -0.283,0.803 -0.425,1.79 -0.425,2.963 0,1.173 0.169,2.197 0.507,3.072 0.337,0.874 0.794,1.594 1.371,2.16 0.577,0.566 1.246,0.988 2.009,1.266 0.761,0.278 1.567,0.417 2.416,0.417 1.937,0 3.451,-0.53 4.539,-1.59 1.089,-1.06 1.633,-2.773 1.633,-5.139 v -4.044 h 2.254 c 0.435,0 0.762,-0.088 0.979,-0.262 0.218,-0.176 0.327,-0.469 0.327,-0.88 0,-0.536 -0.104,-0.88 -0.31,-1.034 -0.207,-0.155 -0.539,-0.232 -0.996,-0.232 H 6.172 v -0.741 c 0,-0.967 -0.136,-1.79 -0.408,-2.469 -0.272,-0.679 -0.653,-1.235 -1.143,-1.667 -0.49,-0.432 -1.083,-0.751 -1.78,-0.957 -0.697,-0.205 -1.469,-0.308 -2.318,-0.308 z" id="path30" style="fill:#1b1b68;fill-opacity:1;fill-rule:nonzero;stroke:none"/></g><g id="g32" transform="translate(398.1676,447.5632)"><path d="m 0,0 c -0.217,0 -0.326,0.103 -0.326,0.309 v 2.253 c 0,0.205 0.109,0.309 0.326,0.309 h 2.221 c 0.217,0 0.327,-0.104 0.327,-0.309 V 0.309 C 2.548,0.103 2.438,0 2.221,0 Z m -3.886,-15.681 c -0.435,0 -0.762,0.072 -0.98,0.216 -0.217,0.144 -0.327,0.432 -0.327,0.865 0,0.514 0.104,0.864 0.311,1.049 0.207,0.185 0.539,0.278 0.996,0.278 h 2.058 c 0.543,0 0.941,0.118 1.191,0.355 0.251,0.236 0.376,0.664 0.376,1.281 v 8.272 c 0,0.206 0.108,0.309 0.326,0.309 h 2.09 c 0.218,0 0.327,-0.103 0.327,-0.309 v -8.426 c 0,-1.338 -0.294,-2.321 -0.882,-2.948 -0.587,-0.628 -1.567,-0.942 -2.939,-0.942 z" id="path34" style="fill:#1b1b68;fill-opacity:1;fill-rule:nonzero;stroke:none"/></g><g id="g36" transform="translate(404.5688,452.5638)"><path d="m 0,0 c 0,0.205 0.108,0.308 0.326,0.308 h 2.09 C 2.634,0.308 2.743,0.205 2.743,0 v -16.638 c 0,-0.617 0.125,-1.044 0.375,-1.281 0.251,-0.237 0.648,-0.355 1.193,-0.355 h 1.436 c 0.871,0 1.307,-0.412 1.307,-1.234 0,-0.515 -0.104,-0.839 -0.31,-0.973 -0.208,-0.134 -0.539,-0.2 -0.997,-0.2 H 3.821 c -1.372,0 -2.351,0.313 -2.939,0.941 C 0.294,-19.112 0,-18.13 0,-16.792 Z" id="path38" style="fill:#1b1b68;fill-opacity:1;fill-rule:nonzero;stroke:none"/></g><g id="g40" transform="translate(419.591,447.5632)"><path d="m 0,0 c -0.218,0 -0.326,0.103 -0.326,0.309 v 2.253 c 0,0.205 0.108,0.309 0.326,0.309 h 2.221 c 0.217,0 0.326,-0.104 0.326,-0.309 V 0.309 C 2.547,0.103 2.438,0 2.221,0 Z m -3.984,0 c -0.218,0 -0.327,0.103 -0.327,0.309 v 2.253 c 0,0.205 0.109,0.309 0.327,0.309 h 2.22 c 0.218,0 0.327,-0.104 0.327,-0.309 V 0.309 C -1.437,0.103 -1.546,0 -1.764,0 Z m 3.102,-4.908 c -1.045,0 -1.905,-0.288 -2.58,-0.864 -0.675,-0.577 -1.012,-1.41 -1.012,-2.501 0,-1.111 0.348,-2.042 1.045,-2.793 0.696,-0.751 1.546,-1.312 2.547,-1.682 1.002,0.37 1.85,0.931 2.547,1.682 0.697,0.751 1.045,1.682 1.045,2.793 0,1.091 -0.337,1.924 -1.012,2.501 -0.675,0.576 -1.535,0.864 -2.58,0.864 m 0,2.408 c 1.111,0 2.068,-0.139 2.874,-0.417 C 2.797,-3.195 3.467,-3.581 4,-4.074 4.534,-4.568 4.931,-5.16 5.193,-5.849 c 0.261,-0.69 0.391,-1.446 0.391,-2.269 0,-1.05 -0.256,-2.027 -0.767,-2.933 -0.512,-0.905 -1.225,-1.656 -2.139,-2.253 0.109,0.02 0.272,0.031 0.49,0.031 h 4.539 c 0.436,0 0.762,-0.072 0.98,-0.216 0.217,-0.144 0.326,-0.432 0.326,-0.864 0,-0.515 -0.103,-0.865 -0.31,-1.05 -0.207,-0.185 -0.539,-0.278 -0.996,-0.278 H 3.364 c -0.784,0 -1.524,0.031 -2.221,0.093 -0.697,0.062 -1.361,0.278 -1.992,0.648 -0.718,-0.37 -1.486,-0.586 -2.302,-0.648 -0.817,-0.062 -1.541,-0.093 -2.172,-0.093 h -3.952 c -0.87,0 -1.306,0.412 -1.306,1.235 0,0.514 0.103,0.838 0.31,0.972 0.208,0.134 0.539,0.201 0.996,0.201 h 4.801 c -0.893,0.597 -1.595,1.343 -2.106,2.238 -0.512,0.895 -0.768,1.867 -0.768,2.917 0,0.823 0.131,1.579 0.392,2.269 0.261,0.689 0.658,1.281 1.192,1.775 0.533,0.493 1.203,0.879 2.008,1.157 0.805,0.278 1.764,0.417 2.874,0.417" id="path42" style="fill:#1b1b68;fill-opacity:1;fill-rule:nonzero;stroke:none"/></g><g id="g44" transform="translate(427.2982,431.8825)"><path d="m 0,0 c -0.435,0 -0.762,0.072 -0.98,0.216 -0.217,0.144 -0.326,0.432 -0.326,0.864 0,0.515 0.103,0.865 0.31,1.05 0.207,0.185 0.539,0.278 0.996,0.278 h 2.058 c 0.543,0 0.941,0.118 1.191,0.355 0.251,0.236 0.376,0.663 0.376,1.281 v 16.637 c 0,0.206 0.108,0.309 0.326,0.309 h 2.09 c 0.218,0 0.327,-0.103 0.327,-0.309 V 3.889 C 6.368,2.551 6.074,1.569 5.486,0.941 4.899,0.314 3.919,0 2.547,0 Z" id="path46" style="fill:#1b1b68;fill-opacity:1;fill-rule:nonzero;stroke:none"/></g><g id="g48" transform="translate(440.982,432.1912)"><path d="m 0,0 c 0,-0.206 -0.109,-0.309 -0.327,-0.309 h -2.09 c -0.218,0 -0.326,0.103 -0.326,0.309 v 20.373 c 0,0.205 0.108,0.308 0.326,0.308 h 2.09 C -0.109,20.681 0,20.578 0,20.373 Z" id="path50" style="fill:#1b1b68;fill-opacity:1;fill-rule:nonzero;stroke:none"/></g><g id="g52" transform="translate(454.6976,438.8277)"><path d="M 0,0 C 0.087,0.144 0.24,0.154 0.458,0.031 L 2.254,-0.895 C 2.427,-0.998 2.46,-1.132 2.352,-1.296 1.96,-1.873 1.584,-2.583 1.225,-3.426 0.866,-4.27 0.686,-5.155 0.686,-6.081 c 0,-0.885 0.158,-1.621 0.474,-2.207 0.315,-0.586 0.723,-1.049 1.224,-1.389 0.501,-0.34 1.045,-0.581 1.633,-0.725 0.588,-0.144 1.164,-0.216 1.731,-0.216 1.393,0 2.536,0.339 3.429,1.018 0.892,0.679 1.339,1.78 1.339,3.303 v 20.033 c 0,0.206 0.109,0.309 0.326,0.309 h 2.091 c 0.217,0 0.326,-0.103 0.326,-0.309 V -2.439 c 0,-0.699 0.266,-1.224 0.8,-1.574 0.534,-0.35 1.246,-0.524 2.139,-0.524 h 0.359 c 0.436,0 0.762,-0.088 0.98,-0.263 0.218,-0.175 0.327,-0.468 0.327,-0.88 0,-0.535 -0.104,-0.879 -0.311,-1.034 -0.206,-0.154 -0.538,-0.231 -0.996,-0.231 h -0.685 c -1.133,0 -2.004,0.329 -2.613,0.988 v -0.371 c 0,-2.119 -0.659,-3.776 -1.976,-4.969 -1.317,-1.194 -3.216,-1.791 -5.698,-1.791 -1.176,0 -2.237,0.15 -3.185,0.448 -0.947,0.298 -1.752,0.736 -2.416,1.312 -0.664,0.576 -1.182,1.281 -1.551,2.114 -0.371,0.833 -0.555,1.796 -0.555,2.886 0,1.214 0.212,2.382 0.636,3.504 C -1.061,-1.703 -0.566,-0.762 0,0" id="path54" style="fill:#1b1b68;fill-opacity:1;fill-rule:nonzero;stroke:none"/></g><g id="g56" transform="translate(477.133,426.1411)"><path d="m 0,0 c -0.218,0 -0.326,0.103 -0.326,0.309 v 2.253 c 0,0.206 0.108,0.309 0.326,0.309 h 2.221 c 0.217,0 0.327,-0.103 0.327,-0.309 V 0.309 C 2.548,0.103 2.438,0 2.221,0 Z m -3.984,0 c -0.218,0 -0.327,0.103 -0.327,0.309 v 2.253 c 0,0.206 0.109,0.309 0.327,0.309 h 2.22 c 0.218,0 0.327,-0.103 0.327,-0.309 V 0.309 C -1.437,0.103 -1.546,0 -1.764,0 Z M -5.65,5.741 c -0.435,0 -0.761,0.072 -0.979,0.216 -0.218,0.144 -0.327,0.433 -0.327,0.865 0,0.514 0.103,0.864 0.31,1.049 0.208,0.185 0.539,0.278 0.996,0.278 h 2.221 c 0.544,0 0.941,0.118 1.192,0.355 0.25,0.237 0.376,0.664 0.376,1.281 v 8.273 c 0,0.205 0.109,0.308 0.326,0.308 h 2.09 c 0.218,0 0.327,-0.103 0.327,-0.308 v -7.81 c 0,-0.7 0.266,-1.224 0.8,-1.574 0.533,-0.35 1.246,-0.525 2.139,-0.525 h 0.392 c 0.435,0 0.762,-0.088 0.98,-0.262 C 5.41,7.712 5.519,7.418 5.519,7.007 5.519,6.472 5.416,6.127 5.209,5.973 5.002,5.819 4.67,5.741 4.213,5.741 H 3.494 C 2.797,5.741 2.188,5.875 1.666,6.143 1.143,6.41 0.74,6.811 0.457,7.347 -0.087,6.276 -1.219,5.741 -2.939,5.741 Z" id="path58" style="fill:#1b1b68;fill-opacity:1;fill-rule:nonzero;stroke:none"/></g><g id="g60" transform="translate(487.5835,447.5632)"><path d="m 0,0 c -0.218,0 -0.326,0.103 -0.326,0.309 v 2.253 c 0,0.205 0.108,0.309 0.326,0.309 h 2.221 c 0.217,0 0.326,-0.104 0.326,-0.309 V 0.309 C 2.547,0.103 2.438,0 2.221,0 Z m -1.959,3.612 c -0.218,0 -0.327,0.102 -0.327,0.308 v 2.253 c 0,0.206 0.109,0.309 0.327,0.309 h 2.221 c 0.217,0 0.326,-0.103 0.326,-0.309 V 3.92 C 0.588,3.714 0.479,3.612 0.262,3.612 Z M -3.984,0 c -0.218,0 -0.327,0.103 -0.327,0.309 v 2.253 c 0,0.205 0.109,0.309 0.327,0.309 h 2.22 c 0.218,0 0.327,-0.104 0.327,-0.309 V 0.309 C -1.437,0.103 -1.546,0 -1.764,0 Z m -2.025,-15.681 c -0.435,0 -0.762,0.072 -0.98,0.216 -0.217,0.144 -0.326,0.432 -0.326,0.865 0,0.514 0.103,0.864 0.31,1.049 0.207,0.185 0.539,0.278 0.996,0.278 h 2.221 c 0.544,0 0.941,0.118 1.192,0.355 0.25,0.236 0.375,0.664 0.375,1.281 v 8.272 c 0,0.206 0.109,0.309 0.327,0.309 h 2.09 c 0.218,0 0.326,-0.103 0.326,-0.309 v -7.809 c 0,-0.7 0.267,-1.224 0.8,-1.574 0.534,-0.35 1.247,-0.525 2.14,-0.525 h 0.392 c 0.435,0 0.761,-0.088 0.979,-0.262 0.218,-0.176 0.327,-0.469 0.327,-0.88 0,-0.535 -0.104,-0.88 -0.31,-1.034 -0.208,-0.155 -0.539,-0.232 -0.996,-0.232 H 3.135 c -0.697,0 -1.306,0.134 -1.828,0.401 -0.523,0.268 -0.926,0.669 -1.209,1.204 -0.544,-1.07 -1.677,-1.605 -3.396,-1.605 z" id="path62" style="fill:#1b1b68;fill-opacity:1;fill-rule:nonzero;stroke:none"/></g><g id="g64" transform="translate(501.2997,442.6552)"><path d="m 0,0 c -1.22,0 -2.106,-0.381 -2.661,-1.142 -0.556,-0.762 -0.833,-1.821 -0.833,-3.179 0,-1.482 0.277,-2.562 0.833,-3.241 0.555,-0.68 1.441,-1.019 2.661,-1.019 1.219,0 2.106,0.339 2.661,1.019 0.556,0.679 0.833,1.759 0.833,3.241 0,1.358 -0.277,2.417 -0.833,3.179 C 2.106,-0.381 1.219,0 0,0 m 0,-10.989 c -1.024,0 -1.927,0.139 -2.711,0.417 -0.783,0.278 -1.448,0.715 -1.991,1.312 -0.458,-0.659 -1.046,-1.076 -1.764,-1.25 -0.719,-0.175 -1.383,-0.263 -1.992,-0.263 h -1.405 c -0.87,0 -1.306,0.412 -1.306,1.235 0,0.514 0.104,0.838 0.31,0.972 0.208,0.134 0.539,0.201 0.996,0.201 h 1.633 c 0.239,0 0.479,0.046 0.719,0.139 0.239,0.092 0.457,0.247 0.653,0.463 0.196,0.216 0.354,0.504 0.473,0.864 0.12,0.36 0.18,0.808 0.18,1.343 -0.022,0.205 -0.033,0.406 -0.033,0.602 v 0.633 c 0,2.366 0.555,4.079 1.666,5.139 1.11,1.06 2.634,1.59 4.572,1.59 1.937,0 3.462,-0.53 4.572,-1.59 1.11,-1.06 1.666,-2.773 1.666,-5.139 C 6.238,-4.548 6.232,-4.774 6.221,-5 6.21,-5.227 6.193,-5.443 6.172,-5.649 6.193,-6.698 6.417,-7.413 6.842,-7.794 7.266,-8.175 7.718,-8.365 8.197,-8.365 h 0.947 c 0.435,0 0.762,-0.088 0.98,-0.262 0.217,-0.176 0.326,-0.469 0.326,-0.88 0,-0.536 -0.103,-0.88 -0.31,-1.034 -0.207,-0.155 -0.539,-0.232 -0.996,-0.232 H 8.425 c -0.305,0 -0.631,0.016 -0.979,0.046 -0.348,0.031 -0.692,0.098 -1.029,0.201 -0.338,0.103 -0.659,0.252 -0.963,0.448 C 5.148,-9.883 4.887,-9.62 4.67,-9.291 4.125,-9.888 3.462,-10.32 2.678,-10.588 1.894,-10.855 1.001,-10.989 0,-10.989" id="path66" style="fill:#1b1b68;fill-opacity:1;fill-rule:nonzero;stroke:none"/></g><g id="g68" transform="translate(516.6163,447.5632)"><path d="m 0,0 c -0.218,0 -0.327,0.103 -0.327,0.309 v 2.253 c 0,0.205 0.109,0.309 0.327,0.309 h 2.221 c 0.217,0 0.326,-0.104 0.326,-0.309 V 0.309 C 2.547,0.103 2.438,0 2.221,0 Z m -3.984,0 c -0.218,0 -0.327,0.103 -0.327,0.309 v 2.253 c 0,0.205 0.109,0.309 0.327,0.309 h 2.22 c 0.218,0 0.327,-0.104 0.327,-0.309 V 0.309 C -1.437,0.103 -1.546,0 -1.764,0 Z m -1.993,-15.681 c -0.435,0 -0.761,0.072 -0.979,0.216 -0.218,0.144 -0.327,0.432 -0.327,0.865 0,0.514 0.104,0.864 0.31,1.049 0.208,0.185 0.539,0.278 0.996,0.278 h 2.221 c 0.544,0 0.942,0.118 1.192,0.355 0.25,0.236 0.376,0.664 0.376,1.281 v 8.272 c 0,0.206 0.109,0.309 0.327,0.309 h 2.09 c 0.217,0 0.326,-0.103 0.326,-0.309 v -7.809 c 0,-0.7 0.266,-1.224 0.8,-1.574 0.534,-0.35 1.246,-0.525 2.139,-0.525 h 0.392 c 0.435,0 0.762,-0.088 0.98,-0.262 0.217,-0.176 0.327,-0.469 0.327,-0.88 0,-0.535 -0.104,-0.88 -0.311,-1.034 -0.207,-0.155 -0.539,-0.232 -0.996,-0.232 H 3.167 c -0.696,0 -1.306,0.134 -1.828,0.401 -0.523,0.268 -0.926,0.669 -1.209,1.204 -0.544,-1.07 -1.676,-1.605 -3.396,-1.605 z" id="path70" style="fill:#1b1b68;fill-opacity:1;fill-rule:nonzero;stroke:none"/></g><g id="g72" transform="translate(520.5023,431.8825)"><path d="m 0,0 c -0.435,0 -0.762,0.072 -0.98,0.216 -0.217,0.144 -0.327,0.432 -0.327,0.864 0,0.515 0.104,0.865 0.311,1.05 0.207,0.185 0.539,0.278 0.996,0.278 h 2.058 c 0.543,0 0.941,0.118 1.191,0.355 0.251,0.236 0.376,0.663 0.376,1.281 v 16.637 c 0,0.206 0.108,0.309 0.326,0.309 h 2.09 c 0.218,0 0.327,-0.103 0.327,-0.309 V 4.507 c 0,-0.7 0.267,-1.225 0.8,-1.574 C 7.701,2.582 8.414,2.408 9.307,2.408 h 0.392 c 0.436,0 0.762,-0.088 0.98,-0.263 0.217,-0.175 0.326,-0.468 0.326,-0.879 0,-0.536 -0.103,-0.88 -0.31,-1.034 C 10.488,0.077 10.156,0 9.699,0 H 8.981 C 8.284,0 7.674,0.134 7.152,0.401 6.629,0.668 6.226,1.07 5.944,1.605 5.399,0.535 4.267,0 2.547,0 Z" id="path74" style="fill:#1b1b68;fill-opacity:1;fill-rule:nonzero;stroke:none"/></g><g id="g76" transform="translate(530.1688,431.8825)"><path d="m 0,0 c -0.435,0 -0.762,0.072 -0.98,0.216 -0.217,0.144 -0.327,0.432 -0.327,0.864 0,0.515 0.104,0.865 0.311,1.05 0.207,0.185 0.539,0.278 0.996,0.278 h 2.058 c 0.543,0 0.941,0.118 1.191,0.355 0.251,0.236 0.376,0.663 0.376,1.281 v 16.637 c 0,0.206 0.108,0.309 0.326,0.309 h 2.09 c 0.218,0 0.327,-0.103 0.327,-0.309 V 3.889 C 6.368,2.551 6.074,1.569 5.486,0.941 4.899,0.314 3.919,0 2.547,0 Z" id="path78" style="fill:#1b1b68;fill-opacity:1;fill-rule:nonzero;stroke:none"/></g><g id="g80" transform="translate(550.2527,438.8277)"><path d="M 0,0 C 0.087,0.144 0.24,0.154 0.458,0.031 L 2.254,-0.895 C 2.427,-0.998 2.46,-1.132 2.352,-1.296 1.96,-1.873 1.584,-2.583 1.225,-3.426 0.866,-4.27 0.686,-5.155 0.686,-6.081 c 0,-0.885 0.158,-1.621 0.474,-2.207 0.315,-0.586 0.723,-1.049 1.224,-1.389 0.501,-0.34 1.045,-0.581 1.633,-0.725 0.588,-0.144 1.164,-0.216 1.731,-0.216 1.393,0 2.536,0.339 3.429,1.018 0.892,0.679 1.339,1.78 1.339,3.303 v 20.033 c 0,0.206 0.109,0.309 0.326,0.309 h 2.091 c 0.217,0 0.326,-0.103 0.326,-0.309 V -2.439 c 0,-0.699 0.266,-1.224 0.8,-1.574 0.534,-0.35 1.246,-0.524 2.139,-0.524 h 0.359 c 0.436,0 0.762,-0.088 0.98,-0.263 0.218,-0.175 0.327,-0.468 0.327,-0.88 0,-0.535 -0.104,-0.879 -0.311,-1.034 -0.206,-0.154 -0.538,-0.231 -0.996,-0.231 h -0.685 c -1.133,0 -2.004,0.329 -2.613,0.988 v -0.371 c 0,-2.119 -0.659,-3.776 -1.976,-4.969 -1.317,-1.194 -3.216,-1.791 -5.698,-1.791 -1.176,0 -2.237,0.15 -3.185,0.448 -0.947,0.298 -1.752,0.736 -2.416,1.312 -0.664,0.576 -1.182,1.281 -1.552,2.114 -0.37,0.833 -0.554,1.796 -0.554,2.886 0,1.214 0.212,2.382 0.636,3.504 C -1.061,-1.703 -0.566,-0.762 0,0" id="path82" style="fill:#1b1b68;fill-opacity:1;fill-rule:nonzero;stroke:none"/></g><g id="g84" transform="translate(569.5536,448.7361)"><path d="m 0,0 c -0.174,0.205 -0.316,0.452 -0.425,0.741 -0.109,0.288 -0.163,0.617 -0.163,0.988 0,0.308 0.054,0.633 0.163,0.972 0.109,0.34 0.305,0.653 0.588,0.941 0.283,0.289 0.648,0.53 1.094,0.726 0.446,0.195 1.018,0.293 1.715,0.293 0.609,0 1.176,-0.108 1.698,-0.324 C 5.193,4.121 5.573,3.838 5.813,3.488 5.899,3.365 5.889,3.251 5.78,3.149 L 4.931,2.47 C 4.866,2.428 4.779,2.459 4.67,2.562 4.452,2.747 4.202,2.906 3.919,3.041 3.636,3.174 3.287,3.241 2.874,3.241 2.242,3.241 1.785,3.076 1.502,2.747 1.219,2.418 1.077,2.058 1.077,1.667 1.077,1.214 1.197,0.854 1.437,0.587 1.676,0.319 1.916,0.124 2.155,0 h 3.691 c 0.13,0 0.195,-0.072 0.195,-0.216 V -1.204 C 6.041,-1.348 5.976,-1.42 5.846,-1.42 H -1.11 c -0.131,0 -0.197,0.072 -0.197,0.216 v 0.988 C -1.307,-0.072 -1.241,0 -1.11,0 Z m -2.515,-16.854 c -0.435,0 -0.761,0.072 -0.979,0.216 -0.218,0.144 -0.327,0.433 -0.327,0.865 0,0.514 0.103,0.864 0.31,1.049 0.208,0.186 0.539,0.278 0.996,0.278 h 2.058 c 0.544,0 0.941,0.118 1.192,0.355 0.25,0.237 0.375,0.664 0.375,1.281 v 8.273 c 0,0.205 0.109,0.308 0.327,0.308 h 2.09 c 0.217,0 0.327,-0.103 0.327,-0.308 v -8.427 c 0,-1.338 -0.294,-2.321 -0.882,-2.948 -0.588,-0.628 -1.568,-0.942 -2.94,-0.942 z" id="path86" style="fill:#1b1b68;fill-opacity:1;fill-rule:nonzero;stroke:none"/></g><g id="g88" transform="translate(584.0858,442.6552)"><path d="m 0,0 c -1.089,0 -1.954,-0.412 -2.596,-1.235 -0.643,-0.823 -0.964,-1.914 -0.964,-3.272 0,-1.461 0.311,-2.469 0.931,-3.025 0.621,-0.555 1.54,-0.833 2.76,-0.833 h 3.298 v 4.044 c 0,1.358 -0.267,2.417 -0.8,3.179 C 2.095,-0.381 1.219,0 0,0 m -3.527,-16.915 c -0.218,0 -0.327,0.103 -0.327,0.308 v 1.791 c 0,0.206 0.109,0.308 0.327,0.308 h 3.919 c 0.435,0 0.838,0.047 1.208,0.139 0.37,0.093 0.691,0.247 0.964,0.463 0.272,0.216 0.484,0.515 0.636,0.895 0.152,0.381 0.229,0.86 0.229,1.436 v 0.802 h -3.494 c -0.959,0 -1.824,0.108 -2.596,0.324 -0.774,0.216 -1.432,0.566 -1.976,1.05 -0.545,0.483 -0.958,1.126 -1.241,1.929 -0.284,0.803 -0.425,1.79 -0.425,2.963 0,1.173 0.169,2.197 0.507,3.072 0.337,0.874 0.794,1.594 1.371,2.16 0.577,0.566 1.246,0.988 2.009,1.266 0.761,0.278 1.567,0.417 2.416,0.417 1.937,0 3.451,-0.53 4.539,-1.59 1.089,-1.06 1.633,-2.773 1.633,-5.139 v -4.044 h 2.254 c 0.435,0 0.762,-0.088 0.979,-0.262 0.218,-0.176 0.327,-0.469 0.327,-0.88 0,-0.536 -0.104,-0.88 -0.31,-1.034 -0.207,-0.155 -0.539,-0.232 -0.996,-0.232 H 6.172 v -0.741 c 0,-0.967 -0.136,-1.79 -0.408,-2.469 -0.272,-0.679 -0.653,-1.235 -1.143,-1.667 -0.49,-0.432 -1.083,-0.751 -1.78,-0.957 -0.697,-0.205 -1.469,-0.308 -2.319,-0.308 z" id="path90" style="fill:#1b1b68;fill-opacity:1;fill-rule:nonzero;stroke:none"/></g><g id="g92" transform="translate(602.4066,442.6552)"><path d="m 0,0 c -1.22,0 -2.106,-0.381 -2.661,-1.142 -0.556,-0.762 -0.833,-1.821 -0.833,-3.179 0,-1.482 0.277,-2.562 0.833,-3.241 0.555,-0.68 1.441,-1.019 2.661,-1.019 1.219,0 2.107,0.339 2.661,1.019 0.556,0.679 0.833,1.759 0.833,3.241 0,1.358 -0.277,2.417 -0.833,3.179 C 2.107,-0.381 1.219,0 0,0 m 0,-10.989 c -1.024,0 -1.927,0.139 -2.711,0.417 -0.783,0.278 -1.448,0.715 -1.991,1.312 -0.458,-0.659 -1.046,-1.076 -1.764,-1.25 -0.719,-0.175 -1.383,-0.263 -1.992,-0.263 h -1.405 c -0.87,0 -1.306,0.412 -1.306,1.235 0,0.514 0.104,0.838 0.31,0.972 0.208,0.134 0.539,0.201 0.996,0.201 h 1.633 c 0.24,0 0.479,0.046 0.719,0.139 0.239,0.092 0.457,0.247 0.653,0.463 0.196,0.216 0.354,0.504 0.473,0.864 0.12,0.36 0.18,0.808 0.18,1.343 -0.022,0.205 -0.032,0.406 -0.032,0.602 v 0.633 c 0,2.366 0.554,4.079 1.665,5.139 1.11,1.06 2.634,1.59 4.572,1.59 1.937,0 3.462,-0.53 4.572,-1.59 1.11,-1.06 1.666,-2.773 1.666,-5.139 0,-1.174 -0.148,-2.182 -0.442,-3.025 C 5.503,-8.19 5.089,-8.88 4.556,-9.414 4.022,-9.95 3.369,-10.346 2.596,-10.603 1.823,-10.86 0.958,-10.989 0,-10.989" id="path94" style="fill:#1b1b68;fill-opacity:1;fill-rule:nonzero;stroke:none"/></g><g id="g96" transform="translate(348.4061,413.7684)"><path d="M 0,0 C 0,0.127 0.067,0.19 0.201,0.19 H 1.51 C 1.672,0.19 1.779,0.127 1.833,0 l 4.088,-8.718 h 0.06 L 9.989,0 c 0.053,0.127 0.161,0.19 0.322,0.19 h 1.309 c 0.134,0 0.202,-0.063 0.202,-0.19 v -12.563 c 0,-0.127 -0.068,-0.19 -0.202,-0.19 h -1.269 c -0.134,0 -0.201,0.063 -0.201,0.19 V -3.56 H 10.09 L 6.686,-10.679 C 6.619,-10.831 6.498,-10.907 6.324,-10.907 H 5.518 c -0.188,0 -0.316,0.076 -0.383,0.228 L 1.732,-3.56 h -0.06 v -9.003 c 0,-0.127 -0.068,-0.19 -0.202,-0.19 H 0.201 C 0.067,-12.753 0,-12.69 0,-12.563 Z" id="path98" style="fill:#1b1b68;fill-opacity:1;fill-rule:nonzero;stroke:none"/></g><g id="g100" transform="translate(367.115,402.2903)"><path d="m 0,0 c 0.537,0 0.993,0.124 1.369,0.371 0.376,0.248 0.645,0.6 0.806,1.057 0.081,0.253 0.138,0.517 0.171,0.79 0.034,0.272 0.051,0.631 0.051,1.075 0,0.444 -0.017,0.8 -0.051,1.066 C 2.313,4.626 2.256,4.885 2.175,5.14 2.014,5.596 1.745,5.948 1.369,6.196 0.993,6.443 0.537,6.567 0,6.567 -0.537,6.567 -0.993,6.443 -1.369,6.196 -1.746,5.948 -2.014,5.596 -2.175,5.14 -2.255,4.885 -2.313,4.626 -2.346,4.359 -2.38,4.093 -2.397,3.737 -2.397,3.293 -2.397,2.849 -2.38,2.49 -2.346,2.218 -2.313,1.945 -2.255,1.681 -2.175,1.428 -2.014,0.971 -1.746,0.619 -1.369,0.371 -0.993,0.124 -0.537,0 0,0 m 0,-1.485 c -0.94,0 -1.742,0.216 -2.407,0.648 -0.664,0.431 -1.131,1.034 -1.399,1.808 -0.108,0.317 -0.188,0.65 -0.242,0.999 -0.054,0.349 -0.08,0.79 -0.08,1.323 0,0.533 0.026,0.971 0.08,1.314 0.054,0.342 0.134,0.672 0.242,0.989 0.268,0.787 0.735,1.393 1.399,1.818 C -1.742,7.839 -0.94,8.052 0,8.052 0.94,8.052 1.742,7.839 2.407,7.414 3.071,6.989 3.537,6.383 3.806,5.596 3.914,5.279 3.994,4.949 4.048,4.607 4.101,4.264 4.128,3.826 4.128,3.293 4.128,2.76 4.101,2.319 4.048,1.97 3.994,1.621 3.914,1.288 3.806,0.971 3.537,0.197 3.071,-0.406 2.407,-0.837 1.742,-1.269 0.94,-1.485 0,-1.485" id="path102" style="fill:#1b1b68;fill-opacity:1;fill-rule:nonzero;stroke:none"/></g><g id="g104" transform="translate(379.7017,406.3638)"><path d="m 0,0 c 0.08,0 0.121,0.038 0.121,0.114 0,0.419 -0.048,0.762 -0.141,1.028 -0.161,0.457 -0.433,0.809 -0.816,1.057 -0.382,0.247 -0.849,0.371 -1.4,0.371 -0.55,0 -1.016,-0.124 -1.399,-0.371 C -4.018,1.951 -4.289,1.599 -4.451,1.142 -4.545,0.876 -4.592,0.533 -4.592,0.114 -4.592,0.038 -4.552,0 -4.471,0 Z m -2.135,-5.558 c -0.98,0 -1.802,0.212 -2.467,0.637 -0.664,0.426 -1.131,1.038 -1.4,1.837 -0.107,0.292 -0.188,0.616 -0.241,0.971 -0.054,0.355 -0.081,0.8 -0.081,1.333 0,0.533 0.024,0.98 0.071,1.341 0.047,0.362 0.124,0.682 0.231,0.962 0.269,0.799 0.735,1.409 1.4,1.827 0.665,0.419 1.46,0.628 2.386,0.628 0.927,0 1.723,-0.212 2.387,-0.637 C 0.815,2.915 1.282,2.31 1.55,1.523 1.604,1.371 1.648,1.215 1.682,1.057 1.715,0.898 1.745,0.717 1.772,0.514 1.799,0.311 1.819,0.079 1.833,-0.181 c 0.013,-0.26 0.02,-0.561 0.02,-0.904 0,-0.127 -0.074,-0.19 -0.222,-0.19 h -6.102 c -0.081,0 -0.121,-0.038 -0.121,-0.115 0,-0.254 0.013,-0.463 0.04,-0.628 0.028,-0.165 0.067,-0.323 0.122,-0.476 0.187,-0.532 0.489,-0.929 0.905,-1.189 0.417,-0.261 0.927,-0.39 1.531,-0.39 0.577,0 1.068,0.095 1.47,0.285 0.403,0.19 0.739,0.431 1.007,0.723 0.108,0.102 0.208,0.115 0.303,0.039 L 1.611,-3.731 C 1.705,-3.807 1.712,-3.896 1.631,-3.997 1.242,-4.454 0.728,-4.829 0.09,-5.12 -0.547,-5.412 -1.289,-5.558 -2.135,-5.558" id="path106" style="fill:#1b1b68;fill-opacity:1;fill-rule:nonzero;stroke:none"/></g><g id="g108" transform="translate(386.5892,400.9198)"><path d="m 0,0 c -0.846,0 -1.45,0.193 -1.813,0.581 -0.362,0.387 -0.543,0.992 -0.543,1.817 v 10.451 c 0,0.126 0.067,0.19 0.201,0.19 h 1.289 c 0.134,0 0.202,-0.064 0.202,-0.19 V 2.494 c 0,-0.381 0.077,-0.645 0.231,-0.79 0.154,-0.146 0.4,-0.219 0.735,-0.219 h 0.383 c 0.134,0 0.201,-0.064 0.201,-0.191 V 0.19 C 0.886,0.064 0.819,0 0.685,0 Z" id="path110" style="fill:#1b1b68;fill-opacity:1;fill-rule:nonzero;stroke:none"/></g><g id="g112" transform="translate(395.2086,401.015)"><path d="m 0,0 c -0.134,0 -0.201,0.063 -0.201,0.19 v 7.519 c 0,0.076 -0.041,0.114 -0.121,0.114 h -0.826 c -0.134,0 -0.202,0.064 -0.202,0.191 v 0.913 c 0,0.127 0.068,0.191 0.202,0.191 h 0.826 c 0.08,0 0.121,0.038 0.121,0.114 v 0.78 c 0,1.079 0.238,1.837 0.714,2.275 0.477,0.438 1.219,0.657 2.226,0.657 h 0.745 c 0.134,0 0.201,-0.064 0.201,-0.191 v -1.104 c 0,-0.127 -0.067,-0.19 -0.201,-0.19 H 2.96 C 2.651,11.459 2.403,11.44 2.215,11.402 2.027,11.364 1.879,11.294 1.772,11.193 1.665,11.091 1.591,10.951 1.55,10.774 1.511,10.596 1.49,10.368 1.49,10.088 V 9.232 c 0,-0.076 0.04,-0.114 0.121,-0.114 h 1.873 c 0.134,0 0.201,-0.064 0.201,-0.191 V 8.014 C 3.685,7.887 3.618,7.823 3.484,7.823 H 1.611 C 1.53,7.823 1.49,7.785 1.49,7.709 V 0.19 C 1.49,0.063 1.423,0 1.289,0 Z" id="path114" style="fill:#1b1b68;fill-opacity:1;fill-rule:nonzero;stroke:none"/></g><g id="g116" transform="translate(404.5933,402.2903)"><path d="m 0,0 c 0.537,0 0.993,0.124 1.369,0.371 0.376,0.248 0.645,0.6 0.806,1.057 0.081,0.253 0.138,0.517 0.171,0.79 0.034,0.272 0.051,0.631 0.051,1.075 0,0.444 -0.017,0.8 -0.051,1.066 C 2.313,4.626 2.256,4.885 2.175,5.14 2.014,5.596 1.745,5.948 1.369,6.196 0.993,6.443 0.537,6.567 0,6.567 -0.537,6.567 -0.993,6.443 -1.369,6.196 -1.746,5.948 -2.014,5.596 -2.175,5.14 -2.255,4.885 -2.313,4.626 -2.346,4.359 -2.38,4.093 -2.397,3.737 -2.397,3.293 -2.397,2.849 -2.38,2.49 -2.346,2.218 -2.313,1.945 -2.255,1.681 -2.175,1.428 -2.014,0.971 -1.746,0.619 -1.369,0.371 -0.993,0.124 -0.537,0 0,0 m 0,-1.485 c -0.94,0 -1.742,0.216 -2.407,0.648 -0.664,0.431 -1.131,1.034 -1.399,1.808 -0.108,0.317 -0.188,0.65 -0.242,0.999 -0.054,0.349 -0.08,0.79 -0.08,1.323 0,0.533 0.026,0.971 0.08,1.314 0.054,0.342 0.134,0.672 0.242,0.989 0.268,0.787 0.735,1.393 1.399,1.818 C -1.742,7.839 -0.94,8.052 0,8.052 0.94,8.052 1.742,7.839 2.407,7.414 3.071,6.989 3.537,6.383 3.806,5.596 3.914,5.279 3.994,4.949 4.048,4.607 4.101,4.264 4.128,3.826 4.128,3.293 4.128,2.76 4.101,2.319 4.048,1.97 3.994,1.621 3.914,1.288 3.806,0.971 3.537,0.197 3.071,-0.406 2.407,-0.837 1.742,-1.269 0.94,-1.485 0,-1.485" id="path118" style="fill:#1b1b68;fill-opacity:1;fill-rule:nonzero;stroke:none"/></g><g id="g120" transform="translate(411.6419,401.015)"><path d="m 0,0 c -0.134,0 -0.201,0.063 -0.201,0.19 v 8.737 c 0,0.127 0.067,0.191 0.201,0.191 H 1.289 C 1.423,9.118 1.49,9.054 1.49,8.927 V 7.995 H 1.51 C 1.725,8.388 2.044,8.709 2.467,8.956 2.89,9.203 3.424,9.327 4.068,9.327 4.457,9.327 4.823,9.267 5.165,9.146 5.508,9.026 5.8,8.858 6.041,8.642 6.135,8.553 6.149,8.464 6.082,8.375 L 5.337,7.443 C 5.256,7.341 5.162,7.329 5.055,7.405 4.826,7.544 4.591,7.652 4.35,7.728 4.108,7.804 3.846,7.842 3.564,7.842 2.826,7.842 2.296,7.598 1.974,7.109 1.651,6.621 1.49,5.977 1.49,5.177 V 0.19 C 1.49,0.063 1.423,0 1.289,0 Z" id="path122" style="fill:#1b1b68;fill-opacity:1;fill-rule:nonzero;stroke:none"/></g><g id="g124" transform="translate(424.5709,413.7684)"><path d="m 0,0 c 0,0.127 0.067,0.19 0.201,0.19 h 1.39 C 1.725,0.19 1.792,0.127 1.792,0 v -11.059 c 0,-0.076 0.04,-0.115 0.121,-0.115 h 6.525 c 0.134,0 0.201,-0.063 0.201,-0.19 v -1.199 c 0,-0.127 -0.067,-0.19 -0.201,-0.19 H 0.201 C 0.067,-12.753 0,-12.69 0,-12.563 Z" id="path126" style="fill:#1b1b68;fill-opacity:1;fill-rule:nonzero;stroke:none"/></g><g id="g128" transform="translate(441.1047,406.3638)"><path d="m 0,0 c 0.08,0 0.121,0.038 0.121,0.114 0,0.419 -0.048,0.762 -0.141,1.028 -0.161,0.457 -0.433,0.809 -0.816,1.057 -0.382,0.247 -0.849,0.371 -1.4,0.371 -0.55,0 -1.016,-0.124 -1.399,-0.371 C -4.018,1.951 -4.289,1.599 -4.451,1.142 -4.545,0.876 -4.592,0.533 -4.592,0.114 -4.592,0.038 -4.552,0 -4.471,0 Z m -2.135,-5.558 c -0.98,0 -1.802,0.212 -2.467,0.637 -0.664,0.426 -1.131,1.038 -1.4,1.837 -0.107,0.292 -0.188,0.616 -0.241,0.971 -0.054,0.355 -0.081,0.8 -0.081,1.333 0,0.533 0.024,0.98 0.071,1.341 0.047,0.362 0.124,0.682 0.231,0.962 0.269,0.799 0.735,1.409 1.4,1.827 0.665,0.419 1.46,0.628 2.386,0.628 0.927,0 1.723,-0.212 2.387,-0.637 C 0.815,2.915 1.282,2.31 1.55,1.523 1.604,1.371 1.648,1.215 1.682,1.057 1.715,0.898 1.745,0.717 1.772,0.514 1.799,0.311 1.819,0.079 1.833,-0.181 c 0.013,-0.26 0.02,-0.561 0.02,-0.904 0,-0.127 -0.074,-0.19 -0.222,-0.19 h -6.102 c -0.081,0 -0.121,-0.038 -0.121,-0.115 0,-0.254 0.013,-0.463 0.04,-0.628 0.028,-0.165 0.067,-0.323 0.122,-0.476 0.187,-0.532 0.489,-0.929 0.905,-1.189 0.417,-0.261 0.927,-0.39 1.531,-0.39 0.577,0 1.068,0.095 1.47,0.285 0.403,0.19 0.739,0.431 1.007,0.723 0.108,0.102 0.209,0.115 0.303,0.039 L 1.611,-3.731 C 1.705,-3.807 1.712,-3.896 1.631,-3.997 1.242,-4.454 0.728,-4.829 0.09,-5.12 -0.547,-5.412 -1.289,-5.558 -2.135,-5.558" id="path130" style="fill:#1b1b68;fill-opacity:1;fill-rule:nonzero;stroke:none"/></g><g id="g132" transform="translate(449.0591,402.5948)"><path d="M 0,0 C 1.034,0 1.718,0.457 2.054,1.371 2.135,1.599 2.191,1.853 2.226,2.132 2.258,2.411 2.275,2.747 2.275,3.141 2.275,3.534 2.258,3.867 2.226,4.14 2.191,4.413 2.135,4.67 2.054,4.911 1.718,5.812 1.034,6.263 0,6.263 c -1.021,0 -1.699,-0.451 -2.034,-1.352 -0.08,-0.241 -0.141,-0.504 -0.181,-0.79 -0.04,-0.285 -0.06,-0.612 -0.06,-0.98 0,-0.723 0.08,-1.314 0.241,-1.77 C -1.699,0.457 -1.021,0 0,0 m -0.242,-5.215 c -0.684,0 -1.332,0.123 -1.943,0.371 -0.611,0.247 -1.078,0.574 -1.4,0.98 -0.08,0.089 -0.074,0.178 0.021,0.267 l 0.825,0.78 c 0.094,0.089 0.195,0.089 0.302,0 0.336,-0.292 0.681,-0.517 1.037,-0.676 0.356,-0.158 0.769,-0.238 1.239,-0.238 0.805,0 1.413,0.2 1.823,0.6 0.409,0.4 0.613,1.018 0.613,1.856 v 1.066 H 2.255 C 2.027,-0.59 1.702,-0.895 1.279,-1.123 0.856,-1.351 0.289,-1.465 -0.423,-1.465 c -0.819,0 -1.504,0.186 -2.054,0.561 -0.551,0.374 -0.947,0.923 -1.188,1.647 -0.121,0.342 -0.205,0.694 -0.252,1.056 -0.047,0.362 -0.071,0.809 -0.071,1.342 0,0.533 0.024,0.98 0.071,1.342 0.047,0.361 0.131,0.714 0.252,1.056 0.241,0.724 0.637,1.272 1.188,1.647 0.55,0.374 1.235,0.561 2.054,0.561 0.712,0 1.279,-0.114 1.702,-0.342 C 1.702,7.176 2.027,6.872 2.255,6.491 h 0.02 v 0.857 c 0,0.126 0.067,0.19 0.202,0.19 h 1.289 c 0.134,0 0.201,-0.064 0.201,-0.19 V -1.18 C 3.967,-2.487 3.608,-3.486 2.89,-4.178 2.171,-4.87 1.128,-5.215 -0.242,-5.215" id="path134" style="fill:#1b1b68;fill-opacity:1;fill-rule:nonzero;stroke:none"/></g><g id="g136" transform="translate(459.491,402.1761)"><path d="m 0,0 c 0.765,0 1.363,0.155 1.792,0.466 0.43,0.311 0.645,0.752 0.645,1.323 v 1.009 c 0,0.076 -0.04,0.114 -0.121,0.114 H 0.383 C -0.463,2.912 -1.074,2.795 -1.45,2.56 -1.826,2.325 -2.014,1.948 -2.014,1.428 -2.014,0.958 -1.84,0.603 -1.49,0.362 -1.141,0.121 -0.644,0 0,0 m 2.678,-1.161 c -0.134,0 -0.201,0.063 -0.201,0.19 v 0.8 H 2.457 C 2.229,-0.514 1.879,-0.799 1.41,-1.028 0.94,-1.256 0.335,-1.371 -0.403,-1.371 c -0.456,0 -0.883,0.058 -1.278,0.172 -0.397,0.114 -0.739,0.285 -1.028,0.514 -0.288,0.228 -0.516,0.514 -0.684,0.856 -0.168,0.343 -0.252,0.743 -0.252,1.2 0,0.964 0.332,1.675 0.997,2.131 0.664,0.457 1.588,0.686 2.769,0.686 h 2.195 c 0.081,0 0.121,0.038 0.121,0.114 V 4.968 C 2.437,5.603 2.276,6.059 1.953,6.339 1.631,6.618 1.02,6.758 0.121,6.758 -0.43,6.758 -0.886,6.697 -1.249,6.577 -1.611,6.456 -1.933,6.301 -2.215,6.11 -2.336,6.021 -2.43,6.028 -2.497,6.129 l -0.544,0.876 c -0.054,0.101 -0.04,0.19 0.04,0.266 0.363,0.267 0.819,0.483 1.37,0.648 0.55,0.164 1.188,0.247 1.913,0.247 1.369,0 2.343,-0.238 2.92,-0.714 C 3.779,6.976 4.068,6.18 4.068,5.063 v -6.034 c 0,-0.127 -0.067,-0.19 -0.201,-0.19 z" id="path138" style="fill:#1b1b68;fill-opacity:1;fill-rule:nonzero;stroke:none"/></g><g id="g140" transform="translate(469.0973,400.9198)"><path d="m 0,0 c -0.846,0 -1.45,0.193 -1.812,0.581 -0.363,0.387 -0.544,0.992 -0.544,1.817 v 10.451 c 0,0.126 0.067,0.19 0.201,0.19 h 1.289 c 0.134,0 0.202,-0.064 0.202,-0.19 V 2.494 c 0,-0.381 0.077,-0.645 0.231,-0.79 0.154,-0.146 0.4,-0.219 0.735,-0.219 h 0.383 c 0.134,0 0.201,-0.064 0.201,-0.191 V 0.19 C 0.886,0.064 0.819,0 0.685,0 Z" id="path142" style="fill:#1b1b68;fill-opacity:1;fill-rule:nonzero;stroke:none"/></g><g id="g144" transform="translate(482.3484,408.077)"><path d="M 0,0 C 0.806,0 1.43,0.187 1.873,0.561 2.316,0.936 2.538,1.466 2.538,2.151 2.538,2.836 2.316,3.366 1.873,3.74 1.43,4.114 0.806,4.302 0,4.302 h -3.202 c -0.081,0 -0.121,-0.038 -0.121,-0.114 V 0.114 C -3.323,0.038 -3.283,0 -3.202,0 Z m 2.819,-7.062 c -0.12,0 -0.208,0.063 -0.261,0.19 l -2.739,5.292 h -3.021 c -0.081,0 -0.121,-0.038 -0.121,-0.114 v -5.178 c 0,-0.127 -0.067,-0.19 -0.201,-0.19 h -1.39 c -0.134,0 -0.201,0.063 -0.201,0.19 V 5.691 c 0,0.127 0.067,0.191 0.201,0.191 H 0.04 C 0.685,5.882 1.269,5.793 1.792,5.615 2.316,5.437 2.766,5.187 3.142,4.863 3.518,4.54 3.809,4.146 4.018,3.683 4.226,3.22 4.33,2.709 4.33,2.151 4.33,1.275 4.088,0.533 3.605,-0.076 3.122,-0.685 2.464,-1.117 1.631,-1.371 L 4.552,-6.834 C 4.592,-6.897 4.598,-6.951 4.572,-6.995 4.545,-7.04 4.498,-7.062 4.431,-7.062 Z" id="path146" style="fill:#1b1b68;fill-opacity:1;fill-rule:nonzero;stroke:none"/></g><g id="g148" transform="translate(495.3582,406.3638)"><path d="m 0,0 c 0.08,0 0.121,0.038 0.121,0.114 0,0.419 -0.048,0.762 -0.141,1.028 -0.161,0.457 -0.433,0.809 -0.816,1.057 -0.382,0.247 -0.849,0.371 -1.4,0.371 -0.55,0 -1.016,-0.124 -1.399,-0.371 C -4.018,1.951 -4.289,1.599 -4.451,1.142 -4.545,0.876 -4.592,0.533 -4.592,0.114 -4.592,0.038 -4.552,0 -4.471,0 Z m -2.135,-5.558 c -0.98,0 -1.802,0.212 -2.467,0.637 -0.664,0.426 -1.131,1.038 -1.4,1.837 -0.107,0.292 -0.188,0.616 -0.241,0.971 -0.054,0.355 -0.081,0.8 -0.081,1.333 0,0.533 0.024,0.98 0.071,1.341 0.047,0.362 0.124,0.682 0.231,0.962 0.269,0.799 0.735,1.409 1.4,1.827 0.665,0.419 1.46,0.628 2.386,0.628 0.927,0 1.723,-0.212 2.387,-0.637 C 0.815,2.915 1.282,2.31 1.55,1.523 1.604,1.371 1.648,1.215 1.682,1.057 1.715,0.898 1.745,0.717 1.772,0.514 1.799,0.311 1.819,0.079 1.833,-0.181 c 0.013,-0.26 0.02,-0.561 0.02,-0.904 0,-0.127 -0.074,-0.19 -0.222,-0.19 h -6.102 c -0.081,0 -0.121,-0.038 -0.121,-0.115 0,-0.254 0.013,-0.463 0.04,-0.628 0.028,-0.165 0.067,-0.323 0.122,-0.476 0.187,-0.532 0.489,-0.929 0.905,-1.189 0.417,-0.261 0.927,-0.39 1.531,-0.39 0.577,0 1.068,0.095 1.47,0.285 0.403,0.19 0.739,0.431 1.007,0.723 0.108,0.102 0.209,0.115 0.303,0.039 L 1.611,-3.731 C 1.705,-3.807 1.712,-3.896 1.631,-3.997 1.242,-4.454 0.728,-4.829 0.09,-5.12 -0.547,-5.412 -1.289,-5.558 -2.135,-5.558" id="path150" style="fill:#1b1b68;fill-opacity:1;fill-rule:nonzero;stroke:none"/></g><g id="g152" transform="translate(503.9775,402.2903)"><path d="m 0,0 c 1.074,0 1.779,0.463 2.115,1.39 0.08,0.241 0.137,0.514 0.171,0.818 0.033,0.305 0.05,0.666 0.05,1.085 0,0.406 -0.017,0.761 -0.05,1.066 C 2.252,4.664 2.195,4.943 2.115,5.197 1.779,6.11 1.074,6.567 0,6.567 -1.101,6.567 -1.813,6.11 -2.135,5.197 -2.215,4.968 -2.272,4.708 -2.306,4.416 -2.339,4.124 -2.356,3.75 -2.356,3.293 c 0,-0.457 0.017,-0.835 0.05,-1.132 C -2.272,1.862 -2.215,1.605 -2.135,1.39 -1.813,0.463 -1.101,0 0,0 m -3.846,-4.702 c -0.135,0 -0.202,0.064 -0.202,0.191 V 7.652 c 0,0.127 0.067,0.19 0.202,0.19 h 1.289 c 0.134,0 0.201,-0.063 0.201,-0.19 V 6.795 h 0.02 c 0.228,0.368 0.561,0.67 0.997,0.905 0.436,0.234 1.017,0.352 1.742,0.352 0.846,0 1.55,-0.184 2.114,-0.552 C 3.081,7.132 3.484,6.586 3.726,5.863 3.86,5.495 3.95,5.117 3.998,4.73 4.044,4.343 4.068,3.864 4.068,3.293 4.068,2.722 4.044,2.24 3.998,1.846 3.95,1.453 3.86,1.072 3.726,0.704 3.484,-0.019 3.081,-0.565 2.517,-0.933 1.953,-1.301 1.249,-1.485 0.403,-1.485 c -0.725,0 -1.306,0.121 -1.742,0.362 -0.436,0.241 -0.769,0.545 -0.997,0.913 h -0.02 v -4.301 c 0,-0.127 -0.067,-0.191 -0.201,-0.191 z" id="path154" style="fill:#1b1b68;fill-opacity:1;fill-rule:nonzero;stroke:none"/></g><g id="g156" transform="translate(510.9656,401.015)"><path d="m 0,0 c -0.134,0 -0.201,0.063 -0.201,0.19 v 8.737 c 0,0.127 0.067,0.191 0.201,0.191 H 1.289 C 1.423,9.118 1.49,9.054 1.49,8.927 V 7.995 H 1.51 C 1.725,8.388 2.044,8.709 2.467,8.956 2.89,9.203 3.424,9.327 4.068,9.327 4.457,9.327 4.823,9.267 5.165,9.146 5.508,9.026 5.799,8.858 6.041,8.642 6.135,8.553 6.149,8.464 6.082,8.375 L 5.337,7.443 C 5.256,7.341 5.162,7.329 5.055,7.405 4.826,7.544 4.591,7.652 4.35,7.728 4.108,7.804 3.846,7.842 3.564,7.842 2.826,7.842 2.296,7.598 1.974,7.109 1.651,6.621 1.49,5.977 1.49,5.177 V 0.19 C 1.49,0.063 1.423,0 1.289,0 Z" id="path158" style="fill:#1b1b68;fill-opacity:1;fill-rule:nonzero;stroke:none"/></g><g id="g160" transform="translate(524.7604,406.3638)"><path d="m 0,0 c 0.08,0 0.121,0.038 0.121,0.114 0,0.419 -0.048,0.762 -0.141,1.028 -0.161,0.457 -0.433,0.809 -0.816,1.057 -0.382,0.247 -0.849,0.371 -1.4,0.371 -0.55,0 -1.017,-0.124 -1.399,-0.371 C -4.018,1.951 -4.289,1.599 -4.451,1.142 -4.545,0.876 -4.592,0.533 -4.592,0.114 -4.592,0.038 -4.552,0 -4.471,0 Z m -2.135,-5.558 c -0.98,0 -1.802,0.212 -2.467,0.637 -0.664,0.426 -1.131,1.038 -1.4,1.837 -0.107,0.292 -0.188,0.616 -0.241,0.971 -0.054,0.355 -0.081,0.8 -0.081,1.333 0,0.533 0.024,0.98 0.071,1.341 0.047,0.362 0.124,0.682 0.231,0.962 0.269,0.799 0.735,1.409 1.4,1.827 0.665,0.419 1.46,0.628 2.386,0.628 0.927,0 1.723,-0.212 2.387,-0.637 C 0.815,2.915 1.282,2.31 1.55,1.523 1.604,1.371 1.648,1.215 1.682,1.057 1.715,0.898 1.745,0.717 1.772,0.514 1.799,0.311 1.819,0.079 1.833,-0.181 c 0.013,-0.26 0.02,-0.561 0.02,-0.904 0,-0.127 -0.074,-0.19 -0.222,-0.19 h -6.102 c -0.081,0 -0.121,-0.038 -0.121,-0.115 0,-0.254 0.013,-0.463 0.04,-0.628 0.028,-0.165 0.067,-0.323 0.122,-0.476 0.187,-0.532 0.489,-0.929 0.905,-1.189 0.417,-0.261 0.927,-0.39 1.531,-0.39 0.577,0 1.067,0.095 1.47,0.285 0.403,0.19 0.739,0.431 1.007,0.723 0.108,0.102 0.208,0.115 0.303,0.039 l 0.825,-0.705 c 0.094,-0.076 0.1,-0.165 0.02,-0.266 C 1.242,-4.454 0.728,-4.829 0.09,-5.12 -0.547,-5.412 -1.289,-5.558 -2.135,-5.558" id="path162" style="fill:#1b1b68;fill-opacity:1;fill-rule:nonzero;stroke:none"/></g><g id="g164" transform="translate(532.6547,400.8055)"><path d="m 0,0 c -0.47,0 -0.906,0.041 -1.309,0.124 -0.403,0.083 -0.769,0.19 -1.097,0.323 -0.33,0.134 -0.625,0.28 -0.886,0.438 -0.262,0.159 -0.494,0.321 -0.695,0.486 -0.094,0.088 -0.094,0.177 0,0.266 l 0.825,0.838 c 0.094,0.088 0.188,0.088 0.282,0 0.363,-0.292 0.802,-0.54 1.319,-0.743 0.517,-0.203 1.071,-0.304 1.662,-0.304 0.711,0 1.242,0.13 1.591,0.39 0.349,0.26 0.523,0.593 0.523,0.999 0,0.355 -0.124,0.638 -0.372,0.847 -0.249,0.21 -0.749,0.352 -1.501,0.429 l -1.027,0.095 c -0.953,0.101 -1.671,0.368 -2.154,0.799 -0.484,0.432 -0.725,1.022 -0.725,1.771 0,0.875 0.312,1.557 0.936,2.046 0.624,0.488 1.507,0.733 2.648,0.733 0.712,0 1.36,-0.096 1.944,-0.286 C 2.548,9.061 3.041,8.82 3.444,8.528 3.551,8.464 3.565,8.376 3.484,8.261 L 2.8,7.443 C 2.719,7.354 2.625,7.341 2.517,7.405 2.208,7.595 1.823,7.766 1.36,7.919 0.896,8.071 0.416,8.147 -0.08,8.147 -0.685,8.147 -1.141,8.03 -1.45,7.795 -1.759,7.56 -1.913,7.259 -1.913,6.891 c 0,-0.368 0.134,-0.651 0.403,-0.847 0.268,-0.197 0.765,-0.327 1.49,-0.39 L 0.987,5.558 C 1.967,5.469 2.695,5.203 3.172,4.759 3.648,4.315 3.887,3.725 3.887,2.989 3.887,2.087 3.555,1.364 2.89,0.819 2.226,0.273 1.262,0 0,0" id="path166" style="fill:#1b1b68;fill-opacity:1;fill-rule:nonzero;stroke:none"/></g><g id="g168" transform="translate(544.9395,406.3638)"><path d="m 0,0 c 0.08,0 0.121,0.038 0.121,0.114 0,0.419 -0.048,0.762 -0.141,1.028 -0.161,0.457 -0.433,0.809 -0.816,1.057 -0.382,0.247 -0.849,0.371 -1.4,0.371 -0.55,0 -1.016,-0.124 -1.399,-0.371 C -4.018,1.951 -4.289,1.599 -4.451,1.142 -4.545,0.876 -4.592,0.533 -4.592,0.114 -4.592,0.038 -4.551,0 -4.471,0 Z m -2.135,-5.558 c -0.98,0 -1.802,0.212 -2.467,0.637 -0.664,0.426 -1.131,1.038 -1.4,1.837 -0.107,0.292 -0.188,0.616 -0.241,0.971 -0.054,0.355 -0.081,0.8 -0.081,1.333 0,0.533 0.024,0.98 0.071,1.341 0.047,0.362 0.124,0.682 0.231,0.962 0.269,0.799 0.735,1.409 1.4,1.827 0.665,0.419 1.46,0.628 2.386,0.628 0.927,0 1.723,-0.212 2.387,-0.637 C 0.815,2.915 1.282,2.31 1.551,1.523 1.604,1.371 1.648,1.215 1.682,1.057 1.715,0.898 1.745,0.717 1.772,0.514 1.799,0.311 1.819,0.079 1.833,-0.181 c 0.013,-0.26 0.02,-0.561 0.02,-0.904 0,-0.127 -0.074,-0.19 -0.222,-0.19 h -6.102 c -0.08,0 -0.121,-0.038 -0.121,-0.115 0,-0.254 0.013,-0.463 0.041,-0.628 0.027,-0.165 0.067,-0.323 0.121,-0.476 0.187,-0.532 0.489,-0.929 0.905,-1.189 0.417,-0.261 0.927,-0.39 1.531,-0.39 0.577,0 1.068,0.095 1.47,0.285 0.403,0.19 0.739,0.431 1.007,0.723 0.108,0.102 0.209,0.115 0.303,0.039 L 1.611,-3.731 C 1.705,-3.807 1.712,-3.896 1.631,-3.997 1.242,-4.454 0.728,-4.829 0.09,-5.12 -0.547,-5.412 -1.289,-5.558 -2.135,-5.558" id="path170" style="fill:#1b1b68;fill-opacity:1;fill-rule:nonzero;stroke:none"/></g><g id="g172" transform="translate(555.7742,401.015)"><path d="m 0,0 c -0.134,0 -0.201,0.063 -0.201,0.19 v 5.33 c 0,0.736 -0.179,1.307 -0.534,1.713 -0.356,0.406 -0.896,0.609 -1.621,0.609 -0.658,0 -1.192,-0.199 -1.601,-0.599 -0.41,-0.4 -0.615,-0.942 -0.615,-1.628 V 0.19 C -4.572,0.063 -4.639,0 -4.773,0 h -1.289 c -0.134,0 -0.201,0.063 -0.201,0.19 v 8.737 c 0,0.127 0.067,0.191 0.201,0.191 h 1.289 c 0.134,0 0.201,-0.064 0.201,-0.191 V 8.09 h 0.02 c 0.229,0.355 0.571,0.65 1.028,0.885 0.456,0.235 1.013,0.352 1.671,0.352 1.047,0 1.866,-0.311 2.457,-0.933 C 1.195,7.772 1.49,6.941 1.49,5.901 V 0.19 C 1.49,0.063 1.423,0 1.289,0 Z" id="path174" style="fill:#1b1b68;fill-opacity:1;fill-rule:nonzero;stroke:none"/></g><g id="g176" transform="translate(563.2656,400.9198)"><path d="M 0,0 C -0.94,0 -1.608,0.206 -2.004,0.619 -2.4,1.031 -2.598,1.688 -2.598,2.589 v 5.215 c 0,0.076 -0.04,0.115 -0.121,0.115 h -0.805 c -0.135,0 -0.202,0.063 -0.202,0.19 v 0.914 c 0,0.126 0.067,0.19 0.202,0.19 h 0.805 c 0.081,0 0.121,0.038 0.121,0.114 v 2.57 c 0,0.127 0.067,0.19 0.202,0.19 h 1.288 c 0.135,0 0.202,-0.063 0.202,-0.19 v -2.57 c 0,-0.076 0.04,-0.114 0.121,-0.114 h 1.53 c 0.134,0 0.202,-0.064 0.202,-0.19 V 8.109 c 0,-0.127 -0.068,-0.19 -0.202,-0.19 h -1.53 c -0.081,0 -0.121,-0.039 -0.121,-0.115 V 2.646 c 0,-0.457 0.097,-0.765 0.292,-0.923 0.195,-0.159 0.507,-0.238 0.936,-0.238 h 0.423 c 0.134,0 0.202,-0.064 0.202,-0.191 V 0.19 C 0.947,0.064 0.879,0 0.745,0 Z" id="path178" style="fill:#1b1b68;fill-opacity:1;fill-rule:nonzero;stroke:none"/></g><g id="g180" transform="translate(569.9922,402.1761)"><path d="m 0,0 c 0.765,0 1.363,0.155 1.792,0.466 0.43,0.311 0.645,0.752 0.645,1.323 v 1.009 c 0,0.076 -0.04,0.114 -0.121,0.114 H 0.383 C -0.463,2.912 -1.074,2.795 -1.45,2.56 -1.826,2.325 -2.014,1.948 -2.014,1.428 -2.014,0.958 -1.84,0.603 -1.49,0.362 -1.141,0.121 -0.644,0 0,0 m 2.678,-1.161 c -0.134,0 -0.201,0.063 -0.201,0.19 v 0.8 H 2.457 C 2.229,-0.514 1.879,-0.799 1.41,-1.028 0.94,-1.256 0.335,-1.371 -0.403,-1.371 c -0.456,0 -0.883,0.058 -1.278,0.172 -0.397,0.114 -0.739,0.285 -1.028,0.514 -0.288,0.228 -0.516,0.514 -0.684,0.856 -0.168,0.343 -0.252,0.743 -0.252,1.2 0,0.964 0.332,1.675 0.997,2.131 0.664,0.457 1.588,0.686 2.769,0.686 h 2.195 c 0.081,0 0.121,0.038 0.121,0.114 V 4.968 C 2.437,5.603 2.276,6.059 1.953,6.339 1.631,6.618 1.02,6.758 0.121,6.758 -0.43,6.758 -0.886,6.697 -1.249,6.577 -1.611,6.456 -1.933,6.301 -2.215,6.11 -2.336,6.021 -2.43,6.028 -2.497,6.129 l -0.544,0.876 c -0.054,0.101 -0.04,0.19 0.041,0.266 0.362,0.267 0.818,0.483 1.369,0.648 0.55,0.164 1.188,0.247 1.913,0.247 1.369,0 2.343,-0.238 2.92,-0.714 C 3.779,6.976 4.068,6.18 4.068,5.063 v -6.034 c 0,-0.127 -0.067,-0.19 -0.201,-0.19 z" id="path182" style="fill:#1b1b68;fill-opacity:1;fill-rule:nonzero;stroke:none"/></g><g id="g184" transform="translate(580.0812,400.9198)"><path d="M 0,0 C -0.94,0 -1.608,0.206 -2.004,0.619 -2.4,1.031 -2.598,1.688 -2.598,2.589 v 5.215 c 0,0.076 -0.04,0.115 -0.121,0.115 h -0.805 c -0.135,0 -0.202,0.063 -0.202,0.19 v 0.914 c 0,0.126 0.067,0.19 0.202,0.19 h 0.805 c 0.081,0 0.121,0.038 0.121,0.114 v 2.57 c 0,0.127 0.067,0.19 0.202,0.19 h 1.288 c 0.135,0 0.202,-0.063 0.202,-0.19 v -2.57 c 0,-0.076 0.04,-0.114 0.121,-0.114 h 1.53 c 0.134,0 0.202,-0.064 0.202,-0.19 V 8.109 c 0,-0.127 -0.068,-0.19 -0.202,-0.19 h -1.53 c -0.081,0 -0.121,-0.039 -0.121,-0.115 V 2.646 c 0,-0.457 0.097,-0.765 0.292,-0.923 0.195,-0.159 0.507,-0.238 0.936,-0.238 h 0.423 c 0.134,0 0.202,-0.064 0.202,-0.191 V 0.19 C 0.947,0.064 0.879,0 0.745,0 Z" id="path186" style="fill:#1b1b68;fill-opacity:1;fill-rule:nonzero;stroke:none"/></g><g id="g188" transform="translate(583.8476,401.015)"><path d="m 0,0 c -0.134,0 -0.201,0.063 -0.201,0.19 v 8.737 c 0,0.127 0.067,0.191 0.201,0.191 H 1.289 C 1.423,9.118 1.49,9.054 1.49,8.927 V 0.19 C 1.49,0.063 1.423,0 1.289,0 Z m -0.04,11.174 c -0.135,0 -0.202,0.063 -0.202,0.19 v 1.389 c 0,0.127 0.067,0.191 0.202,0.191 h 1.369 c 0.134,0 0.201,-0.064 0.201,-0.191 v -1.389 c 0,-0.127 -0.067,-0.19 -0.201,-0.19 z" id="path190" style="fill:#1b1b68;fill-opacity:1;fill-rule:nonzero;stroke:none"/></g><g id="g192" transform="translate(592.1847,402.2903)"><path d="m 0,0 c 0.537,0 0.993,0.124 1.369,0.371 0.376,0.248 0.645,0.6 0.806,1.057 0.081,0.253 0.138,0.517 0.171,0.79 0.034,0.272 0.051,0.631 0.051,1.075 0,0.444 -0.017,0.8 -0.051,1.066 C 2.313,4.626 2.256,4.885 2.175,5.14 2.014,5.596 1.745,5.948 1.369,6.196 0.993,6.443 0.537,6.567 0,6.567 -0.537,6.567 -0.993,6.443 -1.369,6.196 -1.746,5.948 -2.014,5.596 -2.175,5.14 -2.255,4.885 -2.313,4.626 -2.346,4.359 -2.38,4.093 -2.397,3.737 -2.397,3.293 -2.397,2.849 -2.38,2.49 -2.346,2.218 -2.313,1.945 -2.255,1.681 -2.175,1.428 -2.014,0.971 -1.746,0.619 -1.369,0.371 -0.993,0.124 -0.537,0 0,0 m 0,-1.485 c -0.94,0 -1.742,0.216 -2.407,0.648 -0.664,0.431 -1.131,1.034 -1.399,1.808 -0.108,0.317 -0.188,0.65 -0.242,0.999 -0.054,0.349 -0.08,0.79 -0.08,1.323 0,0.533 0.026,0.971 0.08,1.314 0.054,0.342 0.134,0.672 0.242,0.989 0.268,0.787 0.735,1.393 1.399,1.818 C -1.742,7.839 -0.94,8.052 0,8.052 0.94,8.052 1.742,7.839 2.407,7.414 3.071,6.989 3.537,6.383 3.806,5.596 3.914,5.279 3.994,4.949 4.048,4.607 4.101,4.264 4.128,3.826 4.128,3.293 4.128,2.76 4.101,2.319 4.048,1.97 3.994,1.621 3.914,1.288 3.806,0.971 3.537,0.197 3.071,-0.406 2.407,-0.837 1.742,-1.269 0.94,-1.485 0,-1.485" id="path194" style="fill:#1b1b68;fill-opacity:1;fill-rule:nonzero;stroke:none"/></g><g id="g196" transform="translate(605.2949,401.015)"><path d="m 0,0 c -0.134,0 -0.201,0.063 -0.201,0.19 v 5.33 c 0,0.736 -0.179,1.307 -0.534,1.713 -0.356,0.406 -0.896,0.609 -1.621,0.609 -0.658,0 -1.192,-0.199 -1.601,-0.599 -0.41,-0.4 -0.615,-0.942 -0.615,-1.628 V 0.19 C -4.572,0.063 -4.639,0 -4.773,0 h -1.289 c -0.134,0 -0.201,0.063 -0.201,0.19 v 8.737 c 0,0.127 0.067,0.191 0.201,0.191 h 1.289 c 0.134,0 0.201,-0.064 0.201,-0.191 V 8.09 h 0.02 c 0.229,0.355 0.571,0.65 1.028,0.885 0.456,0.235 1.013,0.352 1.671,0.352 1.047,0 1.866,-0.311 2.457,-0.933 C 1.195,7.772 1.49,6.941 1.49,5.901 V 0.19 C 1.49,0.063 1.423,0 1.289,0 Z" id="path198" style="fill:#1b1b68;fill-opacity:1;fill-rule:nonzero;stroke:none"/></g><g id="g200" transform="translate(663.2466,415.2445)"><path d="m 0,0 10.18,-14.94 0.095,22.714 c 0,0.17 0.08,0.329 0.214,0.427 L 31.219,0.669 21.068,15.566 c -3.134,4.599 -2.065,10.966 2.387,14.221 L 41.617,3.134 C 45.063,-1.922 43.888,-8.922 38.993,-12.5 l -14.472,5.72 c -2.704,1.068 -5.597,-1.047 -5.531,-4.043 l 0.355,-16.04 C 14.45,-30.441 7.689,-29.243 4.244,-24.187 L -13.919,2.466 C -9.407,5.764 -3.176,4.66 0,0" id="path202" style="fill:#1b1b68;fill-opacity:1;fill-rule:nonzero;stroke:none"/></g><g id="g204" transform="translate(641.7128,446.1243)"><path d="m 0,0 -7.401,-16.601 19.039,11.272 c 0.142,0.084 0.315,0.092 0.463,0.02 l 4.068,-22.359 7.38,16.554 c 2.279,5.11 8.137,7.335 13.085,4.969 L 23.429,-35.763 c -2.505,-5.619 -8.945,-8.065 -14.384,-5.463 l -2.454,15.841 c -0.458,2.959 -3.674,4.497 -6.146,2.94 l -13.234,-8.339 c -5.439,2.602 -7.818,9.266 -5.313,14.884 L -4.897,13.718 C 0.116,11.32 2.309,5.179 0,0" id="path206" style="fill:#1b1b68;fill-opacity:1;fill-rule:nonzero;stroke:none"/></g><g id="g208" transform="translate(656.7656,480.8798)"><path d="M 0,0 -17.582,-1.662 1.363,-13.103 c 0.141,-0.086 0.234,-0.237 0.249,-0.406 l -16.662,-14.828 17.532,1.656 c 5.412,0.512 10.201,-3.63 10.697,-9.252 v 0 l -31.367,-2.964 c -5.951,-0.563 -11.216,3.991 -11.76,10.171 v 0 l 12.018,10.122 c 2.245,1.89 1.924,5.543 -0.615,6.982 l -13.589,7.701 c -0.544,6.18 3.838,11.646 9.789,12.208 L 9.022,11.252 C 9.523,5.556 5.484,0.518 0,0" id="path210" style="fill:#1b1b68;fill-opacity:1;fill-rule:nonzero;stroke:none"/></g><g id="g212" transform="translate(693.3524,484.7555)"><path d="m 0,0 -10.18,14.94 -0.095,-22.714 c 0,-0.17 -0.08,-0.329 -0.214,-0.427 l -20.73,7.532 10.151,-14.897 c 3.134,-4.599 2.065,-10.966 -2.387,-14.221 v 0 l -18.162,26.653 c -3.446,5.056 -2.271,12.056 2.624,15.634 l 14.472,-5.72 c 2.704,-1.068 5.597,1.047 5.531,4.043 l -0.355,16.04 c 4.895,3.578 11.656,2.38 15.101,-2.676 L 13.919,-2.466 C 9.407,-5.764 3.176,-4.66 0,0" id="path214" style="fill:#1b1b68;fill-opacity:1;fill-rule:nonzero;stroke:none"/></g><g id="g216" transform="translate(733.9858,474.4567)"><path d="m 0,0 c 0,-1.571 -0.321,-3.165 -0.997,-4.679 l -13.204,-29.619 c -3.66,1.749 -5.819,5.494 -5.819,9.405 0,1.445 0.293,2.913 0.919,4.312 l 7.402,16.601 -19.04,-11.274 c -0.138,-0.08 -0.315,-0.091 -0.465,-0.017 l -4.064,22.359 -7.38,-16.556 c -2.281,-5.109 -8.138,-7.334 -13.088,-4.966 l 13.205,29.619 c 2.508,5.614 8.947,8.062 14.389,5.459 l 2.453,-15.839 c 0.459,-2.959 3.67,-4.501 6.145,-2.941 l 13.232,8.338 C -2.336,8.303 0,4.238 0,0" id="path218" style="fill:#1b1b68;fill-opacity:1;fill-rule:nonzero;stroke:none"/></g><g id="g220" transform="translate(699.8336,419.1202)"><path d="M 0,0 17.582,1.662 -1.363,13.103 c -0.141,0.086 -0.234,0.237 -0.249,0.406 L 15.05,28.337 -2.481,26.681 c -5.413,-0.512 -10.202,3.63 -10.698,9.252 v 0 l 31.367,2.964 c 5.951,0.563 11.216,-3.991 11.76,-10.171 v 0 L 17.93,18.604 c -2.245,-1.89 -1.924,-5.543 0.615,-6.982 L 32.134,3.921 C 32.678,-2.259 28.296,-7.725 22.345,-8.287 L -9.022,-11.252 C -9.523,-5.556 -5.484,-0.518 0,0" id="path222" style="fill:#1b1b68;fill-opacity:1;fill-rule:nonzero;stroke:none"/></g></g></g></g></svg>