<?xml version="1.0" encoding="UTF-8"?>
<svg xmlns="http://www.w3.org/2000/svg" version="1.1" viewBox="0 0 1080 900">
  <defs>
    <style>
      .cls-1 {
        fill: #c1beb4;
      }
    </style>
  </defs>
  <!-- Generator: Adobe Illustrator 28.7.4, SVG Export Plug-In . SVG Version: 1.2.0 Build 166)  -->
  <g>
    <g id="Layer_1">
      <g>
        <g>
          <path class="cls-1" d="M358.98,463.52c.7.25,1.37.5,2.02.76.65.26,1.29.49,1.91.71s1.24.39,1.84.52c.61.13,1.23.2,1.86.2h2.64c.44,0,.76.07.98.22.22.14.33.43.33.86,0,.51-.1.86-.31,1.05-.21.19-.54.28-1,.28h-2.32c.11.16.24.44.39.82.15.38.23.8.23,1.25,0,.49-.1.98-.31,1.47-.21.48-.55.92-1.03,1.31-.48.39-1.11.7-1.89.94-.78.24-1.74.35-2.87.35h-7.64c-2.55,0-4.49-.6-5.81-1.81-1.33-1.2-1.99-2.86-1.99-4.95,0-1.21.21-2.38.64-3.5.42-1.12.92-2.06,1.49-2.82.09-.14.24-.15.46-.03l1.8.93c.17.1.21.24.1.4-.39.58-.77,1.29-1.13,2.13-.36.84-.54,1.73-.54,2.65,0,.84.15,1.56.44,2.15.29.59.69,1.05,1.19,1.4.5.35,1.07.6,1.71.76.64.15,1.32.23,2.04.23h7.22c1.31,0,2.21-.19,2.73-.56.51-.37.77-.81.77-1.33,0-.45-.15-.84-.44-1.17-.29-.33-.73-.63-1.31-.91-.58-.28-1.3-.56-2.16-.85-.86-.29-1.85-.63-2.96-1.02-.2-.06-.26-.19-.2-.37l.72-1.85c.07-.21.2-.28.39-.22ZM353.62,479.6c-.22,0-.33-.1-.33-.31v-2.25c0-.21.11-.31.33-.31h2.22c.22,0,.33.1.33.31v2.25c0,.21-.11.31-.33.31h-2.22ZM357.61,479.6c-.22,0-.33-.1-.33-.31v-2.25c0-.21.11-.31.33-.31h2.22c.22,0,.33.1.33.31v2.25c0,.21-.11.31-.33.31h-2.22Z"/>
          <path class="cls-1" d="M369.49,468.12c-.44,0-.76-.07-.98-.22-.22-.14-.33-.43-.33-.86,0-.51.1-.86.31-1.05.21-.19.54-.28,1-.28h2.06c.54,0,.94-.12,1.19-.35.25-.24.38-.66.38-1.28v-8.27c0-.21.11-.31.33-.31h2.09c.22,0,.33.1.33.31v8.43c0,1.34-.29,2.32-.88,2.95-.59.63-1.57.94-2.94.94h-2.55ZM373.38,452.44c-.22,0-.33-.1-.33-.31v-2.25c0-.21.11-.31.33-.31h2.22c.22,0,.33.1.33.31v2.25c0,.21-.11.31-.33.31h-2.22Z"/>
          <path class="cls-1" d="M382.07,474.26c-.22,0-.33-.1-.33-.31v-1.79c0-.21.11-.31.33-.31h3.92c.44,0,.84-.05,1.21-.14.37-.09.69-.25.96-.46s.48-.51.64-.9c.15-.38.23-.86.23-1.44v-.8h-3.49c-.96,0-1.82-.11-2.6-.32-.77-.22-1.43-.57-1.98-1.05-.54-.48-.96-1.13-1.24-1.93-.28-.8-.42-1.79-.42-2.96s.17-2.2.51-3.07c.34-.87.79-1.59,1.37-2.16.58-.57,1.25-.99,2.01-1.27.76-.28,1.57-.42,2.42-.42,1.94,0,3.45.53,4.54,1.59,1.09,1.06,1.63,2.77,1.63,5.14v4.04h2.25c.44,0,.76.09.98.26.22.18.33.47.33.88,0,.54-.1.88-.31,1.03-.21.15-.54.23-1,.23h-2.25v.74c0,.97-.14,1.79-.41,2.47-.27.68-.65,1.23-1.14,1.67-.49.43-1.08.75-1.78.96-.7.21-1.47.31-2.32.31h-4.05ZM385.59,457.34c-1.09,0-1.95.41-2.6,1.23-.64.82-.96,1.91-.96,3.27,0,1.46.31,2.47.93,3.03.62.56,1.54.83,2.76.83h3.3v-4.04c0-1.36-.27-2.42-.8-3.18-.53-.76-1.41-1.14-2.63-1.14Z"/>
          <path class="cls-1" d="M394.28,468.12c-.44,0-.76-.07-.98-.22-.22-.14-.33-.43-.33-.86,0-.51.1-.86.31-1.05.21-.19.54-.28,1-.28h2.06c.54,0,.94-.12,1.19-.35.25-.24.38-.66.38-1.28v-8.27c0-.21.11-.31.33-.31h2.09c.22,0,.33.1.33.31v8.43c0,1.34-.29,2.32-.88,2.95-.59.63-1.57.94-2.94.94h-2.55ZM398.17,452.44c-.22,0-.33-.1-.33-.31v-2.25c0-.21.11-.31.33-.31h2.22c.22,0,.33.1.33.31v2.25c0,.21-.11.31-.33.31h-2.22Z"/>
          <path class="cls-1" d="M404.57,447.44c0-.21.11-.31.33-.31h2.09c.22,0,.33.1.33.31v16.64c0,.62.12,1.04.38,1.28.25.24.65.35,1.19.35h1.44c.87,0,1.31.41,1.31,1.23,0,.51-.1.84-.31.97-.21.13-.54.2-1,.2h-1.93c-1.37,0-2.35-.31-2.94-.94-.59-.63-.88-1.61-.88-2.95v-16.79Z"/>
          <path class="cls-1" d="M418.71,454.94c1.11,0,2.07.14,2.87.42.81.28,1.47.66,2.01,1.16s.93,1.09,1.19,1.77c.26.69.39,1.45.39,2.27,0,1.05-.26,2.03-.77,2.93-.51.91-1.22,1.66-2.14,2.25.11-.02.27-.03.49-.03h4.54c.44,0,.76.07.98.22.22.14.33.43.33.86,0,.51-.1.86-.31,1.05-.21.19-.54.28-1,.28h-4.34c-.78,0-1.52-.03-2.22-.09-.7-.06-1.36-.28-1.99-.65-.72.37-1.49.59-2.3.65-.82.06-1.54.09-2.17.09h-3.95c-.87,0-1.31-.41-1.31-1.23,0-.51.1-.84.31-.97.21-.13.54-.2,1-.2h4.8c-.89-.6-1.6-1.34-2.11-2.24-.51-.9-.77-1.87-.77-2.92,0-.82.13-1.58.39-2.27.26-.69.66-1.28,1.19-1.77.53-.49,1.2-.88,2.01-1.16s1.76-.42,2.87-.42ZM418.71,457.34c-1.04,0-1.91.29-2.58.86-.68.58-1.01,1.41-1.01,2.5s.35,2.04,1.04,2.79c.7.75,1.55,1.31,2.55,1.68,1-.37,1.85-.93,2.55-1.68.7-.75,1.04-1.68,1.04-2.79s-.34-1.92-1.01-2.5c-.68-.58-1.54-.86-2.58-.86ZM415.61,452.44c-.22,0-.33-.1-.33-.31v-2.25c0-.21.11-.31.33-.31h2.22c.22,0,.33.1.33.31v2.25c0,.21-.11.31-.33.31h-2.22ZM419.59,452.44c-.22,0-.33-.1-.33-.31v-2.25c0-.21.11-.31.33-.31h2.22c.22,0,.33.1.33.31v2.25c0,.21-.11.31-.33.31h-2.22Z"/>
          <path class="cls-1" d="M427.3,468.12c-.44,0-.76-.07-.98-.22-.22-.14-.33-.43-.33-.86,0-.51.1-.86.31-1.05.21-.19.54-.28,1-.28h2.06c.54,0,.94-.12,1.19-.35.25-.24.38-.66.38-1.28v-16.64c0-.21.11-.31.33-.31h2.09c.22,0,.33.1.33.31v16.79c0,1.34-.29,2.32-.88,2.95-.59.63-1.57.94-2.94.94h-2.55Z"/>
          <path class="cls-1" d="M440.98,467.81c0,.21-.11.31-.33.31h-2.09c-.22,0-.33-.1-.33-.31v-20.37c0-.21.11-.31.33-.31h2.09c.22,0,.33.1.33.31v20.37Z"/>
          <path class="cls-1" d="M454.7,461.17c.09-.14.24-.15.46-.03l1.8.93c.17.1.21.24.1.4-.39.58-.77,1.29-1.13,2.13-.36.84-.54,1.73-.54,2.65s.16,1.62.47,2.21c.32.59.72,1.05,1.22,1.39.5.34,1.04.58,1.63.73.59.14,1.16.22,1.73.22,1.39,0,2.54-.34,3.43-1.02.89-.68,1.34-1.78,1.34-3.3v-20.03c0-.21.11-.31.33-.31h2.09c.22,0,.33.1.33.31v16.17c0,.7.27,1.22.8,1.57.53.35,1.25.52,2.14.52h.36c.44,0,.76.09.98.26.22.18.33.47.33.88,0,.54-.1.88-.31,1.03-.21.15-.54.23-1,.23h-.69c-1.13,0-2-.33-2.61-.99v.37c0,2.12-.66,3.78-1.98,4.97-1.32,1.19-3.22,1.79-5.7,1.79-1.18,0-2.24-.15-3.18-.45-.95-.3-1.75-.74-2.42-1.31-.66-.58-1.18-1.28-1.55-2.11-.37-.83-.55-1.8-.55-2.89,0-1.21.21-2.38.64-3.5.42-1.12.92-2.06,1.49-2.82Z"/>
          <path class="cls-1" d="M471.48,468.12c-.44,0-.76-.07-.98-.22-.22-.14-.33-.43-.33-.86,0-.51.1-.86.31-1.05.21-.19.54-.28,1-.28h2.22c.54,0,.94-.12,1.19-.35.25-.24.38-.66.38-1.28v-8.27c0-.21.11-.31.33-.31h2.09c.22,0,.33.1.33.31v7.81c0,.7.27,1.22.8,1.57.53.35,1.25.52,2.14.52h.39c.44,0,.76.09.98.26.22.18.33.47.33.88,0,.54-.1.88-.31,1.03-.21.15-.54.23-1,.23h-.72c-.7,0-1.31-.13-1.83-.4-.52-.27-.93-.67-1.21-1.2-.54,1.07-1.68,1.61-3.4,1.61h-2.71ZM473.15,473.86c-.22,0-.33-.1-.33-.31v-2.25c0-.21.11-.31.33-.31h2.22c.22,0,.33.1.33.31v2.25c0,.21-.11.31-.33.31h-2.22ZM477.13,473.86c-.22,0-.33-.1-.33-.31v-2.25c0-.21.11-.31.33-.31h2.22c.22,0,.33.1.33.31v2.25c0,.21-.11.31-.33.31h-2.22Z"/>
          <path class="cls-1" d="M481.57,468.12c-.44,0-.76-.07-.98-.22-.22-.14-.33-.43-.33-.86,0-.51.1-.86.31-1.05.21-.19.54-.28,1-.28h2.22c.54,0,.94-.12,1.19-.35.25-.24.38-.66.38-1.28v-8.27c0-.21.11-.31.33-.31h2.09c.22,0,.33.1.33.31v7.81c0,.7.27,1.22.8,1.57.53.35,1.25.52,2.14.52h.39c.44,0,.76.09.98.26.22.18.33.47.33.88,0,.54-.1.88-.31,1.03-.21.15-.54.23-1,.23h-.72c-.7,0-1.31-.13-1.83-.4-.52-.27-.93-.67-1.21-1.2-.54,1.07-1.68,1.61-3.4,1.61h-2.71ZM483.6,452.44c-.22,0-.33-.1-.33-.31v-2.25c0-.21.11-.31.33-.31h2.22c.22,0,.33.1.33.31v2.25c0,.21-.11.31-.33.31h-2.22ZM485.62,448.83c-.22,0-.33-.1-.33-.31v-2.25c0-.21.11-.31.33-.31h2.22c.22,0,.33.1.33.31v2.25c0,.21-.11.31-.33.31h-2.22ZM487.58,452.44c-.22,0-.33-.1-.33-.31v-2.25c0-.21.11-.31.33-.31h2.22c.22,0,.33.1.33.31v2.25c0,.21-.11.31-.33.31h-2.22Z"/>
          <path class="cls-1" d="M501.3,468.33c-1.02,0-1.93-.14-2.71-.42-.78-.28-1.45-.71-1.99-1.31-.46.66-1.05,1.08-1.76,1.25-.72.17-1.38.26-1.99.26h-1.4c-.87,0-1.31-.41-1.31-1.23,0-.51.1-.84.31-.97.21-.13.54-.2,1-.2h1.63c.24,0,.48-.05.72-.14.24-.09.46-.25.65-.46.2-.22.35-.5.47-.86.12-.36.18-.81.18-1.34-.02-.21-.03-.41-.03-.6v-.63c0-2.37.55-4.08,1.67-5.14,1.11-1.06,2.63-1.59,4.57-1.59s3.46.53,4.57,1.59c1.11,1.06,1.67,2.77,1.67,5.14,0,.23,0,.45-.02.68-.01.23-.03.44-.05.65.02,1.05.25,1.76.67,2.15.42.38.88.57,1.35.57h.95c.44,0,.76.09.98.26.22.18.33.47.33.88,0,.54-.1.88-.31,1.03-.21.15-.54.23-1,.23h-.72c-.31,0-.63-.02-.98-.05s-.69-.1-1.03-.2c-.34-.1-.66-.25-.96-.45-.31-.2-.57-.46-.78-.79-.54.6-1.21,1.03-1.99,1.3-.78.27-1.68.4-2.68.4ZM501.3,457.34c-1.22,0-2.11.38-2.66,1.14-.56.76-.83,1.82-.83,3.18,0,1.48.28,2.56.83,3.24.55.68,1.44,1.02,2.66,1.02s2.11-.34,2.66-1.02c.56-.68.83-1.76.83-3.24,0-1.36-.28-2.42-.83-3.18-.55-.76-1.44-1.14-2.66-1.14Z"/>
          <path class="cls-1" d="M510.64,468.12c-.44,0-.76-.07-.98-.22-.22-.14-.33-.43-.33-.86,0-.51.1-.86.31-1.05.21-.19.54-.28,1-.28h2.22c.54,0,.94-.12,1.19-.35.25-.24.38-.66.38-1.28v-8.27c0-.21.11-.31.33-.31h2.09c.22,0,.33.1.33.31v7.81c0,.7.27,1.22.8,1.57.53.35,1.25.52,2.14.52h.39c.44,0,.76.09.98.26.22.18.33.47.33.88,0,.54-.1.88-.31,1.03-.21.15-.54.23-1,.23h-.72c-.7,0-1.31-.13-1.83-.4-.52-.27-.93-.67-1.21-1.2-.54,1.07-1.68,1.61-3.4,1.61h-2.71ZM512.63,452.44c-.22,0-.33-.1-.33-.31v-2.25c0-.21.11-.31.33-.31h2.22c.22,0,.33.1.33.31v2.25c0,.21-.11.31-.33.31h-2.22ZM516.62,452.44c-.22,0-.33-.1-.33-.31v-2.25c0-.21.11-.31.33-.31h2.22c.22,0,.33.1.33.31v2.25c0,.21-.11.31-.33.31h-2.22Z"/>
          <path class="cls-1" d="M520.5,468.12c-.44,0-.76-.07-.98-.22-.22-.14-.33-.43-.33-.86,0-.51.1-.86.31-1.05.21-.19.54-.28,1-.28h2.06c.54,0,.94-.12,1.19-.35.25-.24.38-.66.38-1.28v-16.64c0-.21.11-.31.33-.31h2.09c.22,0,.33.1.33.31v16.17c0,.7.27,1.22.8,1.57.53.35,1.25.52,2.14.52h.39c.44,0,.76.09.98.26.22.18.33.47.33.88,0,.54-.1.88-.31,1.03-.21.15-.54.23-1,.23h-.72c-.7,0-1.31-.13-1.83-.4-.52-.27-.93-.67-1.21-1.2-.54,1.07-1.68,1.61-3.4,1.61h-2.55Z"/>
          <path class="cls-1" d="M530.17,468.12c-.44,0-.76-.07-.98-.22-.22-.14-.33-.43-.33-.86,0-.51.1-.86.31-1.05.21-.19.54-.28,1-.28h2.06c.54,0,.94-.12,1.19-.35.25-.24.38-.66.38-1.28v-16.64c0-.21.11-.31.33-.31h2.09c.22,0,.33.1.33.31v16.79c0,1.34-.29,2.32-.88,2.95-.59.63-1.57.94-2.94.94h-2.55Z"/>
          <path class="cls-1" d="M550.25,461.17c.09-.14.24-.15.46-.03l1.8.93c.17.1.21.24.1.4-.39.58-.77,1.29-1.13,2.13-.36.84-.54,1.73-.54,2.65s.16,1.62.47,2.21c.32.59.72,1.05,1.22,1.39.5.34,1.04.58,1.63.73.59.14,1.16.22,1.73.22,1.39,0,2.54-.34,3.43-1.02.89-.68,1.34-1.78,1.34-3.3v-20.03c0-.21.11-.31.33-.31h2.09c.22,0,.33.1.33.31v16.17c0,.7.27,1.22.8,1.57.53.35,1.25.52,2.14.52h.36c.44,0,.76.09.98.26.22.18.33.47.33.88,0,.54-.1.88-.31,1.03-.21.15-.54.23-1,.23h-.69c-1.13,0-2-.33-2.61-.99v.37c0,2.12-.66,3.78-1.98,4.97-1.32,1.19-3.22,1.79-5.7,1.79-1.18,0-2.24-.15-3.18-.45-.95-.3-1.75-.74-2.42-1.31-.66-.58-1.18-1.28-1.55-2.11-.37-.83-.55-1.8-.55-2.89,0-1.21.21-2.38.64-3.5.42-1.12.92-2.06,1.49-2.82Z"/>
          <path class="cls-1" d="M567.04,468.12c-.44,0-.76-.07-.98-.22-.22-.14-.33-.43-.33-.86,0-.51.1-.86.31-1.05.21-.19.54-.28,1-.28h2.06c.54,0,.94-.12,1.19-.35.25-.24.38-.66.38-1.28v-8.27c0-.21.11-.31.33-.31h2.09c.22,0,.33.1.33.31v8.43c0,1.34-.29,2.32-.88,2.95-.59.63-1.57.94-2.94.94h-2.55ZM569.55,451.26c-.17-.21-.32-.45-.42-.74-.11-.29-.16-.62-.16-.99,0-.31.05-.63.16-.97.11-.34.3-.65.59-.94.28-.29.65-.53,1.09-.73.45-.2,1.02-.29,1.71-.29.61,0,1.18.11,1.7.32s.9.5,1.14.85c.09.12.08.24-.03.34l-.85.68c-.06.04-.15.01-.26-.09-.22-.19-.47-.34-.75-.48-.28-.13-.63-.2-1.04-.2-.63,0-1.09.17-1.37.49-.28.33-.42.69-.42,1.08,0,.45.12.81.36,1.08.24.27.48.46.72.59h3.69c.13,0,.2.07.2.22v.99c0,.14-.07.22-.2.22h-6.96c-.13,0-.2-.07-.2-.22v-.99c0-.14.07-.22.2-.22h1.11Z"/>
          <path class="cls-1" d="M580.56,474.26c-.22,0-.33-.1-.33-.31v-1.79c0-.21.11-.31.33-.31h3.92c.44,0,.84-.05,1.21-.14.37-.09.69-.25.96-.46s.48-.51.64-.9c.15-.38.23-.86.23-1.44v-.8h-3.49c-.96,0-1.82-.11-2.6-.32-.77-.22-1.43-.57-1.98-1.05-.54-.48-.96-1.13-1.24-1.93-.28-.8-.42-1.79-.42-2.96s.17-2.2.51-3.07c.34-.87.79-1.59,1.37-2.16.58-.57,1.25-.99,2.01-1.27.76-.28,1.57-.42,2.42-.42,1.94,0,3.45.53,4.54,1.59,1.09,1.06,1.63,2.77,1.63,5.14v4.04h2.25c.44,0,.76.09.98.26.22.18.33.47.33.88,0,.54-.1.88-.31,1.03-.21.15-.54.23-1,.23h-2.25v.74c0,.97-.14,1.79-.41,2.47-.27.68-.65,1.23-1.14,1.67-.49.43-1.08.75-1.78.96-.7.21-1.47.31-2.32.31h-4.05ZM584.09,457.34c-1.09,0-1.95.41-2.6,1.23-.64.82-.96,1.91-.96,3.27,0,1.46.31,2.47.93,3.03.62.56,1.54.83,2.76.83h3.3v-4.04c0-1.36-.27-2.42-.8-3.18-.53-.76-1.41-1.14-2.63-1.14Z"/>
          <path class="cls-1" d="M602.41,468.33c-1.02,0-1.93-.14-2.71-.42-.78-.28-1.45-.71-1.99-1.31-.46.66-1.05,1.08-1.76,1.25-.72.17-1.38.26-1.99.26h-1.4c-.87,0-1.31-.41-1.31-1.23,0-.51.1-.84.31-.97.21-.13.54-.2,1-.2h1.63c.24,0,.48-.05.72-.14.24-.09.46-.25.65-.46.2-.22.35-.5.47-.86.12-.36.18-.81.18-1.34-.02-.21-.03-.41-.03-.6v-.63c0-2.37.55-4.08,1.67-5.14,1.11-1.06,2.63-1.59,4.57-1.59s3.46.53,4.57,1.59c1.11,1.06,1.67,2.77,1.67,5.14,0,1.17-.15,2.18-.44,3.02-.29.84-.71,1.53-1.24,2.07-.53.54-1.19.93-1.96,1.19-.77.26-1.64.39-2.6.39ZM602.41,457.34c-1.22,0-2.11.38-2.66,1.14-.56.76-.83,1.82-.83,3.18,0,1.48.28,2.56.83,3.24.55.68,1.44,1.02,2.66,1.02s2.11-.34,2.66-1.02c.56-.68.83-1.76.83-3.24,0-1.36-.28-2.42-.83-3.18-.55-.76-1.44-1.14-2.66-1.14Z"/>
          <path class="cls-1" d="M348.41,486.23c0-.13.07-.19.2-.19h1.31c.16,0,.27.06.32.19l4.09,8.72h.06l4.01-8.72c.05-.13.16-.19.32-.19h1.31c.13,0,.2.06.2.19v12.56c0,.13-.07.19-.2.19h-1.27c-.13,0-.2-.06-.2-.19v-9h-.06l-3.4,7.12c-.07.15-.19.23-.36.23h-.81c-.19,0-.32-.08-.38-.23l-3.4-7.12h-.06v9c0,.13-.07.19-.2.19h-1.27c-.13,0-.2-.06-.2-.19v-12.56Z"/>
          <path class="cls-1" d="M367.11,499.19c-.94,0-1.74-.22-2.41-.65-.66-.43-1.13-1.03-1.4-1.81-.11-.32-.19-.65-.24-1-.05-.35-.08-.79-.08-1.32s.03-.97.08-1.31c.05-.34.13-.67.24-.99.27-.79.74-1.39,1.4-1.82.66-.43,1.47-.64,2.41-.64s1.74.21,2.41.64c.66.43,1.13,1.03,1.4,1.82.11.32.19.65.24.99.05.34.08.78.08,1.31s-.03.97-.08,1.32c-.05.35-.13.68-.24,1-.27.77-.74,1.38-1.4,1.81-.66.43-1.47.65-2.41.65ZM367.11,497.71c.54,0,.99-.12,1.37-.37s.64-.6.81-1.06c.08-.25.14-.52.17-.79.03-.27.05-.63.05-1.08s-.02-.8-.05-1.07-.09-.53-.17-.78c-.16-.46-.43-.81-.81-1.06s-.83-.37-1.37-.37-.99.12-1.37.37c-.38.25-.64.6-.81,1.06-.08.25-.14.51-.17.78s-.05.62-.05,1.07.02.8.05,1.08c.03.27.09.54.17.79.16.46.43.81.81,1.06.38.25.83.37,1.37.37Z"/>
          <path class="cls-1" d="M377.57,499.19c-.98,0-1.8-.21-2.47-.64-.66-.43-1.13-1.04-1.4-1.84-.11-.29-.19-.62-.24-.97-.05-.36-.08-.8-.08-1.33s.02-.98.07-1.34c.05-.36.12-.68.23-.96.27-.8.74-1.41,1.4-1.83.66-.42,1.46-.63,2.39-.63s1.72.21,2.39.64c.66.43,1.13,1.03,1.4,1.82.05.15.1.31.13.47.03.16.06.34.09.54.03.2.05.43.06.69.01.26.02.56.02.9,0,.13-.07.19-.22.19h-6.1c-.08,0-.12.04-.12.11,0,.25.01.46.04.63.03.17.07.32.12.48.19.53.49.93.91,1.19.42.26.93.39,1.53.39s1.07-.1,1.47-.29c.4-.19.74-.43,1.01-.72.11-.1.21-.11.3-.04l.83.7c.09.08.1.17.02.27-.39.46-.9.83-1.54,1.12-.64.29-1.38.44-2.22.44ZM379.7,493.64c.08,0,.12-.04.12-.11,0-.42-.05-.76-.14-1.03-.16-.46-.43-.81-.82-1.06-.38-.25-.85-.37-1.4-.37s-1.02.12-1.4.37-.65.6-.82,1.06c-.09.27-.14.61-.14,1.03,0,.08.04.11.12.11h4.47Z"/>
          <path class="cls-1" d="M386.59,499.08c-.85,0-1.45-.19-1.81-.58s-.54-.99-.54-1.82v-10.45c0-.13.07-.19.2-.19h1.29c.13,0,.2.06.2.19v10.35c0,.38.08.64.23.79.15.15.4.22.74.22h.38c.13,0,.2.06.2.19v1.1c0,.13-.07.19-.2.19h-.68Z"/>
          <path class="cls-1" d="M395.21,498.99c-.13,0-.2-.06-.2-.19v-7.52c0-.08-.04-.11-.12-.11h-.83c-.13,0-.2-.06-.2-.19v-.91c0-.13.07-.19.2-.19h.83c.08,0,.12-.04.12-.11v-.78c0-1.08.24-1.84.71-2.27.48-.44,1.22-.66,2.23-.66h.75c.13,0,.2.06.2.19v1.1c0,.13-.07.19-.2.19h-.52c-.31,0-.56.02-.74.06-.19.04-.34.11-.44.21-.11.1-.18.24-.22.42-.04.18-.06.41-.06.69v.86c0,.08.04.11.12.11h1.87c.13,0,.2.06.2.19v.91c0,.13-.07.19-.2.19h-1.87c-.08,0-.12.04-.12.11v7.52c0,.13-.07.19-.2.19h-1.29Z"/>
          <path class="cls-1" d="M404.59,499.19c-.94,0-1.74-.22-2.41-.65-.66-.43-1.13-1.03-1.4-1.81-.11-.32-.19-.65-.24-1-.05-.35-.08-.79-.08-1.32s.03-.97.08-1.31c.05-.34.13-.67.24-.99.27-.79.74-1.39,1.4-1.82.66-.43,1.47-.64,2.41-.64s1.74.21,2.41.64c.66.43,1.13,1.03,1.4,1.82.11.32.19.65.24.99.05.34.08.78.08,1.31s-.03.97-.08,1.32c-.05.35-.13.68-.24,1-.27.77-.74,1.38-1.4,1.81-.66.43-1.47.65-2.41.65ZM404.59,497.71c.54,0,.99-.12,1.37-.37s.64-.6.81-1.06c.08-.25.14-.52.17-.79.03-.27.05-.63.05-1.08s-.02-.8-.05-1.07-.09-.53-.17-.78c-.16-.46-.43-.81-.81-1.06s-.83-.37-1.37-.37-.99.12-1.37.37c-.38.25-.64.6-.81,1.06-.08.25-.14.51-.17.78s-.05.62-.05,1.07.02.8.05,1.08c.03.27.09.54.17.79.16.46.43.81.81,1.06.38.25.83.37,1.37.37Z"/>
          <path class="cls-1" d="M411.64,498.99c-.13,0-.2-.06-.2-.19v-8.74c0-.13.07-.19.2-.19h1.29c.13,0,.2.06.2.19v.93h.02c.21-.39.53-.71.96-.96s.96-.37,1.6-.37c.39,0,.76.06,1.1.18s.63.29.88.5c.09.09.11.18.04.27l-.75.93c-.08.1-.17.11-.28.04-.23-.14-.46-.25-.7-.32-.24-.08-.5-.11-.79-.11-.74,0-1.27.24-1.59.73-.32.49-.48,1.13-.48,1.93v4.99c0,.13-.07.19-.2.19h-1.29Z"/>
          <path class="cls-1" d="M424.57,486.23c0-.13.07-.19.2-.19h1.39c.13,0,.2.06.2.19v11.06c0,.08.04.11.12.11h6.53c.13,0,.2.06.2.19v1.2c0,.13-.07.19-.2.19h-8.24c-.13,0-.2-.06-.2-.19v-12.56Z"/>
          <path class="cls-1" d="M438.97,499.19c-.98,0-1.8-.21-2.47-.64-.66-.43-1.13-1.04-1.4-1.84-.11-.29-.19-.62-.24-.97-.05-.36-.08-.8-.08-1.33s.02-.98.07-1.34c.05-.36.12-.68.23-.96.27-.8.74-1.41,1.4-1.83.66-.42,1.46-.63,2.39-.63s1.72.21,2.39.64c.66.43,1.13,1.03,1.4,1.82.05.15.1.31.13.47.03.16.06.34.09.54.03.2.05.43.06.69.01.26.02.56.02.9,0,.13-.07.19-.22.19h-6.1c-.08,0-.12.04-.12.11,0,.25.01.46.04.63.03.17.07.32.12.48.19.53.49.93.91,1.19.42.26.93.39,1.53.39s1.07-.1,1.47-.29c.4-.19.74-.43,1.01-.72.11-.1.21-.11.3-.04l.83.7c.09.08.1.17.02.27-.39.46-.9.83-1.54,1.12-.64.29-1.38.44-2.22.44ZM441.1,493.64c.08,0,.12-.04.12-.11,0-.42-.05-.76-.14-1.03-.16-.46-.43-.81-.82-1.06-.38-.25-.85-.37-1.4-.37s-1.02.12-1.4.37-.65.6-.82,1.06c-.09.27-.14.61-.14,1.03,0,.08.04.11.12.11h4.47Z"/>
          <path class="cls-1" d="M448.82,502.62c-.68,0-1.33-.12-1.94-.37-.61-.25-1.08-.57-1.4-.98-.08-.09-.07-.18.02-.27l.83-.78c.09-.09.19-.09.3,0,.34.29.68.52,1.04.68.36.16.77.24,1.24.24.81,0,1.41-.2,1.82-.6.41-.4.61-1.02.61-1.86v-1.07h-.02c-.23.38-.55.69-.98.91-.42.23-.99.34-1.7.34-.82,0-1.5-.19-2.05-.56-.55-.37-.95-.92-1.19-1.65-.12-.34-.2-.69-.25-1.06-.05-.36-.07-.81-.07-1.34s.02-.98.07-1.34c.05-.36.13-.71.25-1.06.24-.72.64-1.27,1.19-1.65.55-.37,1.23-.56,2.05-.56.71,0,1.28.11,1.7.34.42.23.75.53.98.91h.02v-.86c0-.13.07-.19.2-.19h1.29c.13,0,.2.06.2.19v8.53c0,1.31-.36,2.31-1.08,3-.72.69-1.76,1.04-3.13,1.04ZM449.06,497.41c1.03,0,1.72-.46,2.05-1.37.08-.23.14-.48.17-.76.03-.28.05-.62.05-1.01s-.02-.73-.05-1c-.03-.27-.09-.53-.17-.77-.34-.9-1.02-1.35-2.05-1.35s-1.7.45-2.03,1.35c-.08.24-.14.5-.18.79-.04.29-.06.61-.06.98,0,.72.08,1.31.24,1.77.34.91,1.01,1.37,2.03,1.37Z"/>
          <path class="cls-1" d="M462.17,498.99c-.13,0-.2-.06-.2-.19v-.8h-.02c-.23.34-.58.63-1.05.86-.47.23-1.07.34-1.81.34-.46,0-.88-.06-1.28-.17-.4-.11-.74-.29-1.03-.51-.29-.23-.52-.51-.68-.86s-.25-.74-.25-1.2c0-.96.33-1.68,1-2.13s1.59-.69,2.77-.69h2.19c.08,0,.12-.04.12-.11v-.67c0-.63-.16-1.09-.48-1.37-.32-.28-.93-.42-1.83-.42-.55,0-1.01.06-1.37.18-.36.12-.68.28-.97.47-.12.09-.22.08-.28-.02l-.54-.88c-.05-.1-.04-.19.04-.27.36-.27.82-.48,1.37-.65.55-.16,1.19-.25,1.91-.25,1.37,0,2.34.24,2.92.71.58.48.87,1.27.87,2.39v6.03c0,.13-.07.19-.2.19h-1.19ZM459.49,497.82c.77,0,1.36-.16,1.79-.47.43-.31.64-.75.64-1.32v-1.01c0-.08-.04-.11-.12-.11h-1.93c-.85,0-1.46.12-1.83.35-.38.23-.56.61-.56,1.13,0,.47.17.83.52,1.07.35.24.85.36,1.49.36Z"/>
          <path class="cls-1" d="M469.1,499.08c-.85,0-1.45-.19-1.81-.58s-.54-.99-.54-1.82v-10.45c0-.13.07-.19.2-.19h1.29c.13,0,.2.06.2.19v10.35c0,.38.08.64.23.79.15.15.4.22.74.22h.38c.13,0,.2.06.2.19v1.1c0,.13-.07.19-.2.19h-.68Z"/>
          <path class="cls-1" d="M485.17,498.99c-.12,0-.21-.06-.26-.19l-2.74-5.29h-3.02c-.08,0-.12.04-.12.11v5.18c0,.13-.07.19-.2.19h-1.39c-.13,0-.2-.06-.2-.19v-12.56c0-.13.07-.19.2-.19h4.95c.64,0,1.23.09,1.75.27.52.18.97.43,1.35.75.38.32.67.72.88,1.18.21.46.31.97.31,1.53,0,.88-.24,1.62-.73,2.23s-1.14,1.04-1.97,1.29l2.92,5.46c.04.06.05.12.02.16-.03.04-.07.07-.14.07h-1.61ZM482.35,491.92c.81,0,1.43-.19,1.87-.56.44-.37.66-.9.66-1.59s-.22-1.21-.66-1.59c-.44-.37-1.07-.56-1.87-.56h-3.2c-.08,0-.12.04-.12.11v4.07c0,.08.04.11.12.11h3.2Z"/>
          <path class="cls-1" d="M493.22,499.19c-.98,0-1.8-.21-2.47-.64-.66-.43-1.13-1.04-1.4-1.84-.11-.29-.19-.62-.24-.97-.05-.36-.08-.8-.08-1.33s.02-.98.07-1.34c.05-.36.12-.68.23-.96.27-.8.74-1.41,1.4-1.83.66-.42,1.46-.63,2.39-.63s1.72.21,2.39.64c.66.43,1.13,1.03,1.4,1.82.05.15.1.31.13.47.03.16.06.34.09.54.03.2.05.43.06.69.01.26.02.56.02.9,0,.13-.07.19-.22.19h-6.1c-.08,0-.12.04-.12.11,0,.25.01.46.04.63.03.17.07.32.12.48.19.53.49.93.91,1.19.42.26.93.39,1.53.39s1.07-.1,1.47-.29c.4-.19.74-.43,1.01-.72.11-.1.21-.11.3-.04l.83.7c.09.08.1.17.02.27-.39.46-.9.83-1.54,1.12-.64.29-1.38.44-2.22.44ZM495.36,493.64c.08,0,.12-.04.12-.11,0-.42-.05-.76-.14-1.03-.16-.46-.43-.81-.82-1.06-.38-.25-.85-.37-1.4-.37s-1.02.12-1.4.37-.65.6-.82,1.06c-.09.27-.14.61-.14,1.03,0,.08.04.11.12.11h4.47Z"/>
          <path class="cls-1" d="M500.13,502.41c-.13,0-.2-.06-.2-.19v-12.16c0-.13.07-.19.2-.19h1.29c.13,0,.2.06.2.19v.86h.02c.23-.37.56-.67,1-.9.44-.23,1.02-.35,1.74-.35.85,0,1.55.18,2.11.55.56.37.97.91,1.21,1.64.13.37.22.75.27,1.13.05.39.07.87.07,1.44s-.02,1.05-.07,1.45c-.05.39-.14.77-.27,1.14-.24.72-.64,1.27-1.21,1.64s-1.27.55-2.11.55c-.73,0-1.31-.12-1.74-.36-.44-.24-.77-.55-1-.91h-.02v4.3c0,.13-.07.19-.2.19h-1.29ZM503.98,497.71c1.07,0,1.78-.46,2.11-1.39.08-.24.14-.51.17-.82.03-.3.05-.67.05-1.08s-.02-.76-.05-1.07c-.03-.3-.09-.58-.17-.84-.34-.91-1.04-1.37-2.11-1.37s-1.81.46-2.13,1.37c-.08.23-.14.49-.17.78-.03.29-.05.67-.05,1.12s.02.83.05,1.13c.03.3.09.56.17.77.32.93,1.03,1.39,2.13,1.39Z"/>
          <path class="cls-1" d="M510.97,498.99c-.13,0-.2-.06-.2-.19v-8.74c0-.13.07-.19.2-.19h1.29c.13,0,.2.06.2.19v.93h.02c.21-.39.53-.71.96-.96s.96-.37,1.6-.37c.39,0,.76.06,1.1.18s.63.29.88.5c.09.09.11.18.04.27l-.75.93c-.08.1-.17.11-.28.04-.23-.14-.46-.25-.7-.32-.24-.08-.5-.11-.79-.11-.74,0-1.27.24-1.59.73-.32.49-.48,1.13-.48,1.93v4.99c0,.13-.07.19-.2.19h-1.29Z"/>
          <path class="cls-1" d="M522.63,499.19c-.98,0-1.8-.21-2.47-.64-.66-.43-1.13-1.04-1.4-1.84-.11-.29-.19-.62-.24-.97-.05-.36-.08-.8-.08-1.33s.02-.98.07-1.34c.05-.36.12-.68.23-.96.27-.8.74-1.41,1.4-1.83.66-.42,1.46-.63,2.39-.63s1.72.21,2.39.64c.66.43,1.13,1.03,1.4,1.82.05.15.1.31.13.47.03.16.06.34.09.54.03.2.05.43.06.69.01.26.02.56.02.9,0,.13-.07.19-.22.19h-6.1c-.08,0-.12.04-.12.11,0,.25.01.46.04.63.03.17.07.32.12.48.19.53.49.93.91,1.19.42.26.93.39,1.53.39s1.07-.1,1.47-.29c.4-.19.74-.43,1.01-.72.11-.1.21-.11.3-.04l.83.7c.09.08.1.17.02.27-.39.46-.9.83-1.54,1.12-.64.29-1.38.44-2.22.44ZM524.76,493.64c.08,0,.12-.04.12-.11,0-.42-.05-.76-.14-1.03-.16-.46-.43-.81-.82-1.06-.38-.25-.85-.37-1.4-.37s-1.02.12-1.4.37-.65.6-.82,1.06c-.09.27-.14.61-.14,1.03,0,.08.04.11.12.11h4.47Z"/>
          <path class="cls-1" d="M532.65,499.19c-.47,0-.91-.04-1.31-.12-.4-.08-.77-.19-1.1-.32-.33-.13-.62-.28-.89-.44-.26-.16-.49-.32-.69-.49-.09-.09-.09-.18,0-.27l.83-.84c.09-.09.19-.09.28,0,.36.29.8.54,1.32.74.52.2,1.07.3,1.66.3.71,0,1.24-.13,1.59-.39.35-.26.52-.59.52-1,0-.36-.12-.64-.37-.85-.25-.21-.75-.35-1.5-.43l-1.03-.1c-.95-.1-1.67-.37-2.15-.8-.48-.43-.73-1.02-.73-1.77,0-.88.31-1.56.94-2.05.62-.49,1.51-.73,2.65-.73.71,0,1.36.1,1.94.29.58.19,1.08.43,1.48.72.11.06.12.15.04.27l-.68.82c-.08.09-.17.1-.28.04-.31-.19-.69-.36-1.16-.51-.46-.15-.94-.23-1.44-.23-.6,0-1.06.12-1.37.35-.31.24-.46.54-.46.9s.13.65.4.85c.27.2.76.33,1.49.39l1.01.1c.98.09,1.71.36,2.19.8.48.44.71,1.03.71,1.77,0,.9-.33,1.62-1,2.17-.66.55-1.63.82-2.89.82Z"/>
          <path class="cls-1" d="M542.8,499.19c-.98,0-1.8-.21-2.47-.64-.66-.43-1.13-1.04-1.4-1.84-.11-.29-.19-.62-.24-.97-.05-.36-.08-.8-.08-1.33s.02-.98.07-1.34c.05-.36.12-.68.23-.96.27-.8.74-1.41,1.4-1.83.66-.42,1.46-.63,2.39-.63s1.72.21,2.39.64c.66.43,1.13,1.03,1.4,1.82.05.15.1.31.13.47.03.16.06.34.09.54.03.2.05.43.06.69.01.26.02.56.02.9,0,.13-.07.19-.22.19h-6.1c-.08,0-.12.04-.12.11,0,.25.01.46.04.63.03.17.07.32.12.48.19.53.49.93.91,1.19.42.26.93.39,1.53.39s1.07-.1,1.47-.29c.4-.19.74-.43,1.01-.72.11-.1.21-.11.3-.04l.83.7c.09.08.1.17.02.27-.39.46-.9.83-1.54,1.12-.64.29-1.38.44-2.22.44ZM544.94,493.64c.08,0,.12-.04.12-.11,0-.42-.05-.76-.14-1.03-.16-.46-.43-.81-.82-1.06-.38-.25-.85-.37-1.4-.37s-1.02.12-1.4.37-.65.6-.82,1.06c-.09.27-.14.61-.14,1.03,0,.08.04.11.12.11h4.47Z"/>
          <path class="cls-1" d="M555.77,498.99c-.13,0-.2-.06-.2-.19v-5.33c0-.74-.18-1.31-.53-1.71-.36-.41-.9-.61-1.62-.61-.66,0-1.19.2-1.6.6-.41.4-.61.94-.61,1.63v5.42c0,.13-.07.19-.2.19h-1.29c-.13,0-.2-.06-.2-.19v-8.74c0-.13.07-.19.2-.19h1.29c.13,0,.2.06.2.19v.84h.02c.23-.35.57-.65,1.03-.88.46-.23,1.01-.35,1.67-.35,1.05,0,1.87.31,2.46.93.59.62.89,1.45.89,2.49v5.71c0,.13-.07.19-.2.19h-1.29Z"/>
          <path class="cls-1" d="M563.27,499.08c-.94,0-1.61-.21-2-.62-.4-.41-.59-1.07-.59-1.97v-5.22c0-.08-.04-.11-.12-.11h-.81c-.13,0-.2-.06-.2-.19v-.91c0-.13.07-.19.2-.19h.81c.08,0,.12-.04.12-.11v-2.57c0-.13.07-.19.2-.19h1.29c.13,0,.2.06.2.19v2.57c0,.08.04.11.12.11h1.53c.13,0,.2.06.2.19v.91c0,.13-.07.19-.2.19h-1.53c-.08,0-.12.04-.12.11v5.16c0,.46.1.76.29.92.19.16.51.24.94.24h.42c.13,0,.2.06.2.19v1.1c0,.13-.07.19-.2.19h-.75Z"/>
          <path class="cls-1" d="M572.67,498.99c-.13,0-.2-.06-.2-.19v-.8h-.02c-.23.34-.58.63-1.05.86-.47.23-1.07.34-1.81.34-.46,0-.88-.06-1.28-.17-.4-.11-.74-.29-1.03-.51-.29-.23-.52-.51-.68-.86s-.25-.74-.25-1.2c0-.96.33-1.68,1-2.13s1.59-.69,2.77-.69h2.19c.08,0,.12-.04.12-.11v-.67c0-.63-.16-1.09-.48-1.37-.32-.28-.93-.42-1.83-.42-.55,0-1.01.06-1.37.18-.36.12-.68.28-.97.47-.12.09-.22.08-.28-.02l-.54-.88c-.05-.1-.04-.19.04-.27.36-.27.82-.48,1.37-.65.55-.16,1.19-.25,1.91-.25,1.37,0,2.34.24,2.92.71.58.48.87,1.27.87,2.39v6.03c0,.13-.07.19-.2.19h-1.19ZM569.99,497.82c.77,0,1.36-.16,1.79-.47.43-.31.64-.75.64-1.32v-1.01c0-.08-.04-.11-.12-.11h-1.93c-.85,0-1.46.12-1.83.35-.38.23-.56.61-.56,1.13,0,.47.17.83.52,1.07.35.24.85.36,1.49.36Z"/>
          <path class="cls-1" d="M580.08,499.08c-.94,0-1.61-.21-2-.62-.4-.41-.59-1.07-.59-1.97v-5.22c0-.08-.04-.11-.12-.11h-.81c-.13,0-.2-.06-.2-.19v-.91c0-.13.07-.19.2-.19h.81c.08,0,.12-.04.12-.11v-2.57c0-.13.07-.19.2-.19h1.29c.13,0,.2.06.2.19v2.57c0,.08.04.11.12.11h1.53c.13,0,.2.06.2.19v.91c0,.13-.07.19-.2.19h-1.53c-.08,0-.12.04-.12.11v5.16c0,.46.1.76.29.92.19.16.51.24.94.24h.42c.13,0,.2.06.2.19v1.1c0,.13-.07.19-.2.19h-.75Z"/>
          <path class="cls-1" d="M583.81,487.81c-.13,0-.2-.06-.2-.19v-1.39c0-.13.07-.19.2-.19h1.37c.13,0,.2.06.2.19v1.39c0,.13-.07.19-.2.19h-1.37ZM583.85,498.99c-.13,0-.2-.06-.2-.19v-8.74c0-.13.07-.19.2-.19h1.29c.13,0,.2.06.2.19v8.74c0,.13-.07.19-.2.19h-1.29Z"/>
          <path class="cls-1" d="M592.18,499.19c-.94,0-1.74-.22-2.41-.65-.66-.43-1.13-1.03-1.4-1.81-.11-.32-.19-.65-.24-1-.05-.35-.08-.79-.08-1.32s.03-.97.08-1.31c.05-.34.13-.67.24-.99.27-.79.74-1.39,1.4-1.82.66-.43,1.47-.64,2.41-.64s1.74.21,2.41.64c.66.43,1.13,1.03,1.4,1.82.11.32.19.65.24.99.05.34.08.78.08,1.31s-.03.97-.08,1.32c-.05.35-.13.68-.24,1-.27.77-.74,1.38-1.4,1.81-.66.43-1.47.65-2.41.65ZM592.18,497.71c.54,0,.99-.12,1.37-.37s.64-.6.81-1.06c.08-.25.14-.52.17-.79.03-.27.05-.63.05-1.08s-.02-.8-.05-1.07-.09-.53-.17-.78c-.16-.46-.43-.81-.81-1.06s-.83-.37-1.37-.37-.99.12-1.37.37c-.38.25-.64.6-.81,1.06-.08.25-.14.51-.17.78s-.05.62-.05,1.07.02.8.05,1.08c.03.27.09.54.17.79.16.46.43.81.81,1.06.38.25.83.37,1.37.37Z"/>
          <path class="cls-1" d="M605.29,498.99c-.13,0-.2-.06-.2-.19v-5.33c0-.74-.18-1.31-.53-1.71-.36-.41-.9-.61-1.62-.61-.66,0-1.19.2-1.6.6-.41.4-.61.94-.61,1.63v5.42c0,.13-.07.19-.2.19h-1.29c-.13,0-.2-.06-.2-.19v-8.74c0-.13.07-.19.2-.19h1.29c.13,0,.2.06.2.19v.84h.02c.23-.35.57-.65,1.03-.88.46-.23,1.01-.35,1.67-.35,1.05,0,1.87.31,2.46.93.59.62.89,1.45.89,2.49v5.71c0,.13-.07.19-.2.19h-1.29Z"/>
        </g>
        <g>
          <g id="_x3C_Radial_Repeat_x3E_">
            <path class="cls-1" d="M663.25,484.76l10.18,14.94.09-22.71c0-.17.08-.33.21-.43h0s20.73,7.53,20.73,7.53l-10.15-14.9c-3.13-4.6-2.07-10.97,2.39-14.22h0s18.16,26.65,18.16,26.65c3.45,5.06,2.27,12.06-2.62,15.63h0s-14.47-5.72-14.47-5.72c-2.7-1.07-5.6,1.05-5.53,4.04l.35,16.04h0c-4.89,3.58-11.66,2.38-15.1-2.68l-18.16-26.65h0c4.51-3.3,10.74-2.19,13.92,2.47Z"/>
          </g>
          <g id="_x3C_Radial_Repeat_x3E_-2" data-name="_x3C_Radial_Repeat_x3E_">
            <path class="cls-1" d="M641.71,453.88l-7.4,16.6,19.04-11.27c.14-.08.32-.09.46-.02h0s4.07,22.36,4.07,22.36l7.38-16.55c2.28-5.11,8.14-7.34,13.08-4.97h0s-13.2,29.62-13.2,29.62c-2.5,5.62-8.95,8.06-14.38,5.46h0s-2.45-15.84-2.45-15.84c-.46-2.96-3.67-4.5-6.15-2.94l-13.23,8.34h0c-5.44-2.6-7.82-9.27-5.31-14.88l13.2-29.62h0c5.01,2.4,7.21,8.54,4.9,13.72Z"/>
          </g>
          <g id="_x3C_Radial_Repeat_x3E_-3" data-name="_x3C_Radial_Repeat_x3E_">
            <path class="cls-1" d="M656.77,419.12l-17.58,1.66,18.94,11.44c.14.09.23.24.25.41h0s-16.66,14.83-16.66,14.83l17.53-1.66c5.41-.51,10.2,3.63,10.7,9.25h0s-31.37,2.96-31.37,2.96c-5.95.56-11.22-3.99-11.76-10.17h0s12.02-10.12,12.02-10.12c2.25-1.89,1.92-5.54-.62-6.98l-13.59-7.7h0c-.54-6.18,3.84-11.65,9.79-12.21l31.37-2.96h0c.5,5.7-3.54,10.73-9.02,11.25Z"/>
          </g>
          <g id="_x3C_Radial_Repeat_x3E_-4" data-name="_x3C_Radial_Repeat_x3E_">
            <path class="cls-1" d="M693.35,415.24l-10.18-14.94-.09,22.71c0,.17-.08.33-.21.43h0s-20.73-7.53-20.73-7.53l10.15,14.9c3.13,4.6,2.07,10.97-2.39,14.22h0s-18.16-26.65-18.16-26.65c-3.45-5.06-2.27-12.06,2.62-15.63h0s14.47,5.72,14.47,5.72c2.7,1.07,5.6-1.05,5.53-4.04l-.35-16.04h0c4.89-3.58,11.66-2.38,15.1,2.68l18.16,26.65h0c-4.51,3.3-10.74,2.19-13.92-2.47Z"/>
          </g>
          <g id="_x3C_Radial_Repeat_x3E_-5" data-name="_x3C_Radial_Repeat_x3E_">
            <path class="cls-1" d="M733.99,425.54c0,1.57-.32,3.17-1,4.68l-13.2,29.62c-3.66-1.75-5.82-5.49-5.82-9.4,0-1.45.29-2.91.92-4.31l7.4-16.6-19.04,11.27c-.14.08-.32.09-.47.02l-4.06-22.36-7.38,16.56c-2.28,5.11-8.14,7.33-13.09,4.97l13.2-29.62c2.51-5.61,8.95-8.06,14.39-5.46l2.45,15.84c.46,2.96,3.67,4.5,6.15,2.94l13.23-8.34c3.98,1.9,6.31,5.96,6.31,10.2Z"/>
          </g>
          <g id="_x3C_Radial_Repeat_x3E_-6" data-name="_x3C_Radial_Repeat_x3E_">
            <path class="cls-1" d="M699.83,480.88l17.58-1.66-18.94-11.44c-.14-.09-.23-.24-.25-.41h0s16.66-14.83,16.66-14.83l-17.53,1.66c-5.41.51-10.2-3.63-10.7-9.25h0s31.37-2.96,31.37-2.96c5.95-.56,11.22,3.99,11.76,10.17h0s-12.02,10.12-12.02,10.12c-2.25,1.89-1.92,5.54.62,6.98l13.59,7.7h0c.54,6.18-3.84,11.65-9.79,12.21l-31.37,2.96h0c-.5-5.7,3.54-10.73,9.02-11.25Z"/>
          </g>
        </g>
      </g>
    </g>
  </g>
</svg>